<svg xmlns="http://www.w3.org/2000/svg" xmlns:xlink="http://www.w3.org/1999/xlink" xmlns:inkscape="http://www.inkscape.org/namespaces/inkscape" version="1.1" width="817.9519" height="381.9597" viewBox="0 0 817.9519 381.9597">
<path transform="matrix(1,0,-0,1,630.7227,149.15726)" d="M10.093308 62.862508C10.093308 59.993185 10.614197 57.30741 11.655972 54.805196 12.697747 52.305646 14.10752 50.111875 15.885293 48.223878 17.6604 46.338548 19.727065 44.841665 22.08528 43.733224 24.439942 42.62567 26.969712 42.07145 29.674595 42.07056 32.37681 42.07056 34.907026 42.623895 37.26524 43.730554 39.62079 44.83722 41.6879 46.333215 43.46656 48.218545 45.242559 50.10565 46.633665 52.29898 47.63988 54.79853 48.643438 57.29986 49.145658 59.985185 49.146547 62.854509L59.229188 62.853178C59.229188 58.50652 58.455854 54.42697 56.90919 50.61454 55.36253 46.8021 53.256757 43.461229 50.591878 40.5919 47.925218 37.722574 44.79589 35.46791 41.2039 33.827917 37.61013 32.189699 33.766588 31.370589 29.673262 31.370589H29.557259C25.462159 31.372366 21.618615 32.2137 18.026623 33.89458 14.43552 35.576356 11.307083 37.831907 8.641312 40.661233 5.975541 43.49056 3.870658 46.811883 2.326661 50.625207 .781776 54.43853 .009778 58.518075 .010667 62.863843L10.093308 62.862508ZM10.082643 .009331C10.082643 2.880436 10.585307 5.565762 11.590638 8.065311 12.593302 10.566639 13.98441 12.759968 15.763961 14.645298 17.539958 16.532406 19.606617 18.007958 21.963946 19.071953 24.319495 20.13773 26.849713 20.67017 29.554594 20.669281 32.257699 20.669281 34.787916 20.135949 37.14524 19.069283 39.50079 18.00351 41.56701 16.52707 43.34389 14.639961 45.120779 12.753746 46.530553 10.559971 47.573217 8.058643 48.61588 5.557316 49.13677 2.871548 49.13588 .001331L59.21852 0C59.21852 4.346657 58.446519 8.426201 56.902524 12.238636 55.35675 16.05196 53.25187 19.373284 50.58788 22.20261 47.923887 25.031937 44.795446 27.267045 41.202566 28.907929 37.610574 30.55059 33.767477 31.371478 29.673262 31.370589H29.557259C25.462159 31.371478 21.618168 30.552369 18.02529 28.913262 14.433298 27.274155 11.303972 25.040379 8.637312 22.21194 5.971541 19.382615 3.865769 16.061738 2.319995 12.249302 .773332 8.436867 0 4.357323 0 .010666L10.082643 .009331Z" fill="#ffffff"/>
<path transform="matrix(1,0,-0,1,427.76994,236.43704)" d="M0 7.534646C0 2.454659 2.971993-.000002 6.911983-.000002 9.677309-.000002 11.957304 1.313328 13.063968 3.837321 14.134632 1.313328 16.415959-.000002 19.215952-.000002 23.155943-.000002 26.127936 2.454659 26.127936 7.534646V17.522622H23.81194V7.534646C23.81194 3.906654 21.807946 2.143992 19.04262 2.143992 16.278626 2.143992 14.238631 3.974654 14.238631 7.534646V17.522622H11.922638V7.534646C11.922638 3.974654 9.849309 2.143992 7.085316 2.143992 4.31999 2.143992 2.315994 3.906654 2.315994 7.534646V17.522622H0V7.534646Z" fill="#ffffff"/>
<path transform="matrix(1,0,-0,1,463.5045,235.98772)" d="M15.897294 7.673314C15.343963 4.217323 12.649302 2.143994 9.193311 2.143994 5.63332 2.143994 2.971993 4.319989 2.453327 7.673314H15.897294ZM0 8.986644C0 3.801324 3.801324 0 9.193311 0 14.583965 0 18.31729 3.801324 18.31729 8.986644V9.746642H2.383994C2.695993 13.3053 5.355988 15.829293 9.193311 15.829293 11.887971 15.829293 13.962633 14.723963 15.067964 12.753302H17.590624C16.277295 15.898626 13.166635 17.971955 9.193311 17.971955 3.801324 17.971955 0 14.170631 0 8.986644Z" fill="#ffffff"/>
<path transform="matrix(1,0,-0,1,490.73774,228.97307)" d="M16.03596 16.001294C16.03596 12.061302 13.3053 9.157309 9.193311 9.157309 5.114654 9.157309 2.349327 12.061302 2.349327 16.001294 2.349327 19.939949 5.114654 22.84394 9.193311 22.84394 13.3053 22.84394 16.03596 19.939949 16.03596 16.001294ZM0 15.931958C0 10.678638 3.835991 7.014647 8.846644 7.014647 12.095969 7.014647 14.757297 8.535976 16.03596 11.127971V-.000002H18.351954V15.895959C18.351954 21.391945 14.515964 24.986603 9.227977 24.986603 3.801324 24.986603 0 21.18528 0 15.931958Z" fill="#ffffff"/>
<path transform="matrix(1,0,-0,1,519.4217,230.04373)" d="M.621336 6.843977H2.93733V23.915936H.621336V6.843977ZM0 1.763992C0 .761328 .760017 0 1.761348 0 2.764012 0 3.525341 .761328 3.525341 1.763992 3.525341 2.766657 2.764012 3.526642 1.761348 3.526642 .760017 3.526642 0 2.766657 0 1.763992Z" fill="#ffffff"/>
<path transform="matrix(1,0,-0,1,532.5883,235.98772)" d="M16.03596 8.986644C16.03596 5.046655 13.270634 2.142662 9.193311 2.142662 5.114654 2.142662 2.349327 5.046655 2.349327 8.986644 2.349327 12.925301 5.114654 15.829293 9.193311 15.829293 13.270634 15.829293 16.03596 12.925301 16.03596 8.986644ZM0 9.090644C0 3.767991 3.801324 0 9.193311 0 14.583963 0 18.351954 3.697325 18.351954 9.090644V17.522624H16.209294V13.3053C14.998629 16.34796 12.165302 17.971955 8.846644 17.971955 4.04399 17.971955 0 14.55063 0 9.090644Z" fill="#ffffff"/>
<path transform="matrix(1,0,-0,1,496.50978,138.47599)" d="M0 49.67054V0H11.361305V12.95863H25.41727V23.361275H11.361305V49.67054C11.361305 58.998517 16.26396 63.063844 23.677275 63.063844 31.091923 63.063844 36.11458 60.76918 36.11458 51.321207V50.00654H47.35588V51.321207C47.35588 67.34516 37.789239 73.587818 23.677275 73.587818 9.566642 73.587818 0 65.6945 0 49.67054Z" fill="#ffffff"/>
<path transform="matrix(1,0,-0,1,288.76893,149.15727)" d="M0 0H13.099967L31.25192 46.583887C32.013254 48.537218 34.747915 48.537218 35.509248 46.583887L53.661199 0H66.383838L43.03989 56.553197C41.462564 60.375856 37.76524 62.865179 33.665254 62.865179H32.718587C28.618596 62.865179 24.921273 60.375856 23.34261 56.553197L0 0Z" fill="#ffffff"/>
<path transform="matrix(1,0,-0,1,555.24026,149.15727)" d="M51.98387 25.387936C49.686544 15.837296 41.82923 10.638641 32.157255 10.638641 22.243945 10.638641 14.749295 15.958626 12.451967 25.387936H51.98387ZM0 31.43192C0 13.298634 13.298634 0 32.157255 0 51.01721 0 64.07317 13.298634 64.07317 31.43192V35.66391H12.089303C13.781299 46.302549 21.76128 52.226533 32.157255 52.226533 39.89457 52.226533 45.334558 49.807874 48.841215 44.609224H61.534517C56.941194 55.731859 46.059888 62.865175 32.157255 62.865175 13.298634 62.865175 0 49.56654 0 31.43192Z" fill="#ffffff"/>
<path transform="matrix(1,0,-0,1,358.8661,149.15727)" d="M51.98387 25.387936C49.686544 15.837296 41.82923 10.638641 32.157255 10.638641 22.243945 10.638641 14.749295 15.958626 12.451967 25.387936H51.98387ZM0 31.43192C0 13.298634 13.298634 0 32.157255 0 51.01721 0 64.07317 13.298634 64.07317 31.43192V35.66391H12.089303C13.781299 46.302549 21.76128 52.226533 32.157255 52.226533 39.89457 52.226533 45.334558 49.807874 48.841215 44.609224H61.534517C56.941194 55.731859 46.059888 62.865175 32.157255 62.865175 13.298634 62.865175 0 49.56654 0 31.43192Z" fill="#ffffff"/>
<path transform="matrix(1,0,-0,1,434.31257,149.15727)" d="M0 25.830605C0 8.370647 10.283974 0 25.471936 0 40.539896 0 50.82387 8.370647 50.82387 25.950604V26.547936H39.582567V25.830605C39.582567 14.947964 33.84258 10.523979 25.471936 10.523979 16.98129 10.523979 11.359971 14.947964 11.359971 25.830605V62.865179H0V25.830605Z" fill="#ffffff"/>
<path transform="matrix(1,0,-0,1,630.7227,149.15726)" d="M10.093308 62.862508C10.093308 59.993185 10.614197 57.30741 11.655972 54.805196 12.697747 52.305646 14.10752 50.111875 15.885293 48.223878 17.6604 46.338548 19.727065 44.841665 22.08528 43.733224 24.439942 42.62567 26.969712 42.07145 29.674595 42.07056 32.37681 42.07056 34.907026 42.623895 37.26524 43.730554 39.62079 44.83722 41.6879 46.333215 43.46656 48.218545 45.242559 50.10565 46.633665 52.29898 47.63988 54.79853 48.643438 57.29986 49.145658 59.985185 49.146547 62.854509L59.229188 62.853178C59.229188 58.50652 58.455854 54.42697 56.90919 50.61454 55.36253 46.8021 53.256757 43.461229 50.591878 40.5919 47.925218 37.722574 44.79589 35.46791 41.2039 33.827917 37.61013 32.189699 33.766588 31.370589 29.673262 31.370589H29.557259C25.462159 31.372366 21.618615 32.2137 18.026623 33.89458 14.43552 35.576356 11.307083 37.831907 8.641312 40.661233 5.975541 43.49056 3.870658 46.811883 2.326661 50.625207 .781776 54.43853 .009778 58.518075 .010667 62.863843L10.093308 62.862508ZM10.082643 .009331C10.082643 2.880436 10.585307 5.565762 11.590638 8.065311 12.593302 10.566639 13.98441 12.759968 15.763961 14.645298 17.539958 16.532406 19.606617 18.007958 21.963946 19.071953 24.319495 20.13773 26.849713 20.67017 29.554594 20.669281 32.257699 20.669281 34.787916 20.135949 37.14524 19.069283 39.50079 18.00351 41.56701 16.52707 43.34389 14.639961 45.120779 12.753746 46.530553 10.559971 47.573217 8.058643 48.61588 5.557316 49.13677 2.871548 49.13588 .001331L59.21852 0C59.21852 4.346657 58.446519 8.426201 56.902524 12.238636 55.35675 16.05196 53.25187 19.373284 50.58788 22.20261 47.923887 25.031937 44.795446 27.267045 41.202566 28.907929 37.610574 30.55059 33.767477 31.371478 29.673262 31.370589H29.557259C25.462159 31.371478 21.618168 30.552369 18.02529 28.913262 14.433298 27.274155 11.303972 25.040379 8.637312 22.21194 5.971541 19.382615 3.865769 16.061738 2.319995 12.249302 .773332 8.436867 0 4.357323 0 .010666L10.082643 .009331Z" fill="#ffffff"/>
<path transform="matrix(1,0,-0,1,496.50978,138.47599)" d="M0 49.67054V0H11.361305V12.95863H25.41727V23.361275H11.361305V49.67054C11.361305 58.998517 16.26396 63.063844 23.677275 63.063844 31.091923 63.063844 36.11458 60.76918 36.11458 51.321207V50.00654H47.35588V51.321207C47.35588 67.34516 37.789239 73.587818 23.677275 73.587818 9.566642 73.587818 0 65.6945 0 49.67054Z" fill="#ffffff"/>
<path transform="matrix(1,0,-0,1,288.76893,149.15727)" d="M0 0H13.099967L31.25192 46.583887C32.013254 48.537218 34.747915 48.537218 35.509248 46.583887L53.661199 0H66.383838L43.03989 56.553197C41.462564 60.375856 37.76524 62.865179 33.665254 62.865179H32.718587C28.618596 62.865179 24.921273 60.375856 23.34261 56.553197L0 0Z" fill="#ffffff"/>
<path transform="matrix(1,0,-0,1,555.24026,149.15727)" d="M51.98387 25.387936C49.686544 15.837296 41.82923 10.638641 32.157255 10.638641 22.243945 10.638641 14.749295 15.958626 12.451967 25.387936H51.98387ZM0 31.43192C0 13.298634 13.298634 0 32.157255 0 51.01721 0 64.07317 13.298634 64.07317 31.43192V35.66391H12.089303C13.781299 46.302549 21.76128 52.226533 32.157255 52.226533 39.89457 52.226533 45.334558 49.807874 48.841215 44.609224H61.534517C56.941194 55.731859 46.059888 62.865175 32.157255 62.865175 13.298634 62.865175 0 49.56654 0 31.43192Z" fill="#ffffff"/>
<path transform="matrix(1,0,-0,1,358.8661,149.15727)" d="M51.98387 25.387936C49.686544 15.837296 41.82923 10.638641 32.157255 10.638641 22.243945 10.638641 14.749295 15.958626 12.451967 25.387936H51.98387ZM0 31.43192C0 13.298634 13.298634 0 32.157255 0 51.01721 0 64.07317 13.298634 64.07317 31.43192V35.66391H12.089303C13.781299 46.302549 21.76128 52.226533 32.157255 52.226533 39.89457 52.226533 45.334558 49.807874 48.841215 44.609224H61.534517C56.941194 55.731859 46.059888 62.865175 32.157255 62.865175 13.298634 62.865175 0 49.56654 0 31.43192Z" fill="#ffffff"/>
<path transform="matrix(1,0,-0,1,434.31257,149.15727)" d="M0 25.830605C0 8.370647 10.283974 0 25.471936 0 40.539896 0 50.82387 8.370647 50.82387 25.950604V26.547936H39.582567V25.830605C39.582567 14.947964 33.84258 10.523979 25.471936 10.523979 16.98129 10.523979 11.359971 14.947964 11.359971 25.830605V62.865179H0V25.830605Z" fill="#ffffff"/>
<path transform="matrix(1,0,-0,1,187.39852,208.65714)" d="M.030667 .066666 0-.000001Z" fill="#3df1f6"/>
<path transform="matrix(1,0,-0,1,187.39852,208.3412)" d="M.030667 .382603-.312742 .540571-.343409 .473904 0 .315936 .343409 .157968 .374075 .224635 .030667 .382603Z" fill="#fb5100"/>
<path transform="matrix(1,0,-0,1,172.59455,128)" d="M95.21843 0 55.4012 77.3118 46.06789 95.43175C44.553228 98.37308 42.154565 100.80374 39.151906 102.19574L39.09857 102.22107C38.199907 102.635738 37.278577 103.00907 36.333246 103.327739 33.506586 104.28107 30.482596 104.80239 27.334605 104.80239 20.917286 104.80239 15.001297 102.64907 10.275975 99.03041 9.487977 98.426418 8.727984 97.781078 8.007986 97.09441 4.117329 93.39709 1.27733 88.598438 0 83.19045 1.378663 83.18512 2.734661 83.07045 4.053325 82.85312 9.003979 82.055789 13.47597 79.82513 17.03996 76.60647 18.362626 75.41314 19.55729 74.08114 20.603953 72.637149L24.130606 65.7865 24.13461 65.77716 32.690587 49.16254 35.627916 43.463888C36.881246 40.59722 38.310575 37.821237 39.906568 35.16124 51.467874 15.858627 71.69716 2.346657 95.21843 0Z" fill="#3df1f6"/>
<path transform="matrix(1,0,-0,1,128,129.90665)" d="M24.673272 49.029214C32.70392 47.37855 39.314569 41.842565 42.45456 34.46125 43.70389 31.515923 44.405225 28.274598 44.418558 24.877272 44.469224 11.193306 32.89725 0 19.214619 0H0L24.673272 49.029214Z" fill="#3df1f6"/>
</svg>
