<?xml version="1.0" encoding="utf-8"?>
<!-- Generator: Adobe Illustrator 27.3.1, SVG Export Plug-In . SVG Version: 6.00 Build 0)  -->
<svg version="1.1" id="Layer_1" xmlns="http://www.w3.org/2000/svg" xmlns:xlink="http://www.w3.org/1999/xlink" x="0px" y="0px"
	 viewBox="0 0 1013.08 484.52" style="enable-background:new 0 0 1013.08 484.52;" xml:space="preserve">
<style type="text/css">
	.st0{fill:#150089;}
</style>
<g>
	<path class="st0" d="M776.38,184.05c0,3.55,0.62,6.87,1.87,9.97c1.24,3.09,2.96,5.81,5.16,8.14c2.2,2.33,4.75,4.16,7.67,5.48
		c2.91,1.32,6.04,1.98,9.39,1.98c3.34,0,6.47-0.66,9.39-1.98c2.91-1.32,5.47-3.15,7.67-5.48s3.94-5.05,5.23-8.14
		s1.93-6.42,1.93-9.97h12.47c0,5.38-0.96,10.42-2.87,15.14s-4.51,8.83-7.81,12.33s-7.17,6.27-11.61,8.3s-9.2,3.05-14.26,3.05h-0.14
		c-5.07,0-9.82-1.01-14.27-3.04c-4.44-2.03-8.32-4.79-11.61-8.29c-3.3-3.5-5.9-7.61-7.82-12.32c-1.91-4.72-2.87-9.76-2.87-15.14
		L776.38,184.05z M776.39,261.81c0-3.55,0.64-6.87,1.93-9.97c1.29-3.09,3.03-5.81,5.23-8.14c2.2-2.33,4.75-4.18,7.67-5.56
		c2.91-1.37,6.04-2.06,9.39-2.06c3.34,0,6.47,0.68,9.39,2.05c2.91,1.37,5.47,3.22,7.67,5.55s3.92,5.05,5.16,8.14
		s1.86,6.42,1.87,9.97h12.47c0-5.38-0.96-10.42-2.87-15.14s-4.52-8.85-7.82-12.4c-3.3-3.55-7.17-6.34-11.61-8.37
		s-9.2-3.04-14.26-3.04h-0.14c-5.07,0-9.82,1.04-14.26,3.12s-8.31,4.87-11.61,8.37s-5.9,7.61-7.81,12.33s-2.87,9.76-2.87,15.14
		L776.39,261.81z"/>
	<path class="st0" d="M684.81,301.34c0-6.28,3.68-9.32,8.55-9.32c3.42,0,6.24,1.62,7.61,4.75c1.32-3.12,4.15-4.75,7.61-4.75
		c4.87,0,8.55,3.04,8.55,9.32v12.36h-2.86v-12.36c0-4.49-2.48-6.67-5.9-6.67c-3.42,0-5.94,2.27-5.94,6.67v12.36h-2.87v-12.36
		c0-4.4-2.57-6.67-5.99-6.67s-5.9,2.18-5.9,6.67v12.36h-2.86L684.81,301.34L684.81,301.34z"/>
	<path class="st0" d="M729.01,302.58c0-6.41,4.7-11.12,11.37-11.12s11.29,4.7,11.29,11.12v0.94h-19.71c0.39,4.4,3.68,7.52,8.42,7.52
		c3.33,0,5.9-1.37,7.27-3.8h3.12c-1.62,3.89-5.47,6.46-10.39,6.46C733.72,313.69,729.01,308.99,729.01,302.58z M748.68,300.95
		c-0.68-4.28-4.02-6.84-8.29-6.84c-4.4,0-7.7,2.69-8.34,6.84H748.68z"/>
	<path class="st0" d="M762.7,302.49c0-6.5,4.75-11.03,10.95-11.03c4.02,0,7.31,1.88,8.89,5.09v-13.77h2.86v19.67
		c0,6.8-4.75,11.25-11.29,11.25C767.41,313.69,762.7,308.99,762.7,302.49z M782.54,302.58c0-4.87-3.38-8.47-8.47-8.47
		c-5.05,0-8.47,3.59-8.47,8.47c0,4.87,3.42,8.46,8.47,8.46C779.16,311.04,782.54,307.45,782.54,302.58z"/>
	<path class="st0" d="M798.19,286.29c0-1.24,0.94-2.18,2.18-2.18s2.18,0.94,2.18,2.18s-0.94,2.18-2.18,2.18
		S798.19,287.53,798.19,286.29z M798.96,292.57h2.86v21.12h-2.86V292.57z"/>
	<path class="st0" d="M814.48,302.7c0-6.58,4.7-11.25,11.37-11.25s11.33,4.57,11.33,11.25v10.43h-2.65v-5.22
		c-1.5,3.76-5,5.77-9.11,5.77C819.48,313.69,814.48,309.46,814.48,302.7z M834.31,302.58c0-4.87-3.42-8.47-8.47-8.47
		s-8.47,3.59-8.47,8.47c0,4.87,3.42,8.46,8.47,8.46C830.89,311.04,834.31,307.45,834.31,302.58z"/>
	<path class="st0" d="M597.87,232.27v-61.45h14.05v16.03h17.39v12.87h-17.39v32.55c0,11.54,6.07,16.57,15.24,16.57
		s15.39-2.84,15.39-14.53v-1.63h13.91v1.63c0,19.82-11.84,27.55-29.29,27.55C609.71,261.86,597.87,252.1,597.87,232.27z"/>
	<path class="st0" d="M340.87,184.04h16.21l22.45,57.63c0.94,2.42,4.33,2.42,5.27,0l22.46-57.63H423L394.12,254
		c-1.95,4.73-6.53,7.81-11.6,7.81h-1.17c-5.07,0-9.65-3.08-11.6-7.81L340.87,184.04z"/>
	<path class="st0" d="M670.53,222.93c0-22.43,16.45-38.89,39.78-38.89s39.48,16.45,39.48,38.89v5.23h-64.31
		c2.09,13.16,11.96,20.49,24.83,20.49c9.57,0,16.3-2.99,20.64-9.42h15.7c-5.68,13.76-19.14,22.58-36.34,22.58
		C686.98,261.81,670.53,245.36,670.53,222.93z M734.83,215.45c-2.84-11.81-12.56-18.25-24.53-18.25c-12.26,0-21.54,6.58-24.38,18.25
		H734.83z"/>
	<path class="st0" d="M427.59,222.93c0-22.43,16.45-38.89,39.78-38.89s39.48,16.45,39.48,38.89v5.23h-64.31
		c2.09,13.16,11.96,20.49,24.83,20.49c9.57,0,16.3-2.99,20.64-9.42h15.7c-5.68,13.76-19.14,22.58-36.34,22.58
		C444.04,261.81,427.59,245.36,427.59,222.93z M491.9,215.45c-2.84-11.81-12.56-18.25-24.53-18.25c-12.26,0-21.54,6.58-24.38,18.25
		H491.9z"/>
	<path class="st0" d="M520.93,216c0-21.6,12.72-31.96,31.51-31.96c18.64,0,31.36,10.36,31.36,32.1v0.74h-13.91V216
		c0-13.46-7.1-18.94-17.46-18.94c-10.5,0-17.46,5.47-17.46,18.94v45.82h-14.05V216H520.93z"/>
	<g>
		<path class="st0" d="M314.95,170.83l-39.6,76.89l-9.28,18.02c-1.51,2.93-3.89,5.34-6.88,6.73c-0.02,0.01-0.04,0.02-0.05,0.02
			c-0.89,0.41-1.81,0.78-2.75,1.1c-2.81,0.95-5.82,1.47-8.95,1.47c-6.38,0-12.26-2.14-16.96-5.74c-0.78-0.6-1.54-1.24-2.26-1.93
			c-3.87-3.68-6.69-8.45-7.96-13.83c1.37,0,2.72-0.12,4.03-0.33c4.92-0.79,9.37-3.01,12.92-6.21c1.32-1.19,2.5-2.51,3.54-3.95
			l3.51-6.81v-0.01l8.51-16.52l2.92-5.67c1.25-2.85,2.67-5.61,4.25-8.26C271.44,186.6,291.56,173.16,314.95,170.83z"/>
		<path class="st0" d="M200.44,221.48c7.99-1.64,14.56-7.15,17.68-14.49c1.24-2.93,1.94-6.15,1.95-9.53
			c0.05-13.61-11.46-24.74-25.07-24.74h-19.1L200.44,221.48z"/>
	</g>
</g>
</svg>
