<svg xmlns="http://www.w3.org/2000/svg" version="1.1" width="32" height="32" viewBox="128 128 140 105">
<path transform="matrix(1,0,-0,1,187.39852,208.65714)" d="M.030667 .066666 0-.000001Z" fill="#3df1f6"/>
<path transform="matrix(1,0,-0,1,187.39852,208.3412)" d="M.030667 .382603-.312742 .540571-.343409 .473904 0 .315936 .343409 .157968 .374075 .224635 .030667 .382603Z" fill="#fb5100"/>
<path transform="matrix(1,0,-0,1,172.59455,128)" d="M95.21843 0 55.4012 77.3118 46.06789 95.43175C44.553228 98.37308 42.154565 100.80374 39.151906 102.19574L39.09857 102.22107C38.199907 102.635738 37.278577 103.00907 36.333246 103.327739 33.506586 104.28107 30.482596 104.80239 27.334605 104.80239 20.917286 104.80239 15.001297 102.64907 10.275975 99.03041 9.487977 98.426418 8.727984 97.781078 8.007986 97.09441 4.117329 93.39709 1.27733 88.598438 0 83.19045 1.378663 83.18512 2.734661 83.07045 4.053325 82.85312 9.003979 82.055789 13.47597 79.82513 17.03996 76.60647 18.362626 75.41314 19.55729 74.08114 20.603953 72.637149L24.130606 65.7865 24.13461 65.77716 32.690587 49.16254 35.627916 43.463888C36.881246 40.59722 38.310575 37.821237 39.906568 35.16124 51.467874 15.858627 71.69716 2.346657 95.21843 0Z" fill="#3df1f6"/>
<path transform="matrix(1,0,-0,1,128,129.90665)" d="M24.673272 49.029214C32.70392 47.37855 39.314569 41.842565 42.45456 34.46125 43.70389 31.515923 44.405225 28.274598 44.418558 24.877272 44.469224 11.193306 32.89725 0 19.214619 0H0L24.673272 49.029214Z" fill="#3df1f6"/>
</svg>
