<svg xmlns="http://www.w3.org/2000/svg" xmlns:xlink="http://www.w3.org/1999/xlink" xmlns:inkscape="http://www.inkscape.org/namespaces/inkscape" version="1.1" width="817.9519" height="381.9597" viewBox="0 0 817.9519 381.9597">
<defs>
<clipPath id="clip_1">
<path transform="matrix(1,0,0,-1,0,381.9597)" d="M640.81607 169.93991C640.81607 172.80925 641.3369 175.49501 642.37869 177.99723 643.4205 180.49678 644.83029 182.69055 646.60806 184.57855 648.3831 186.46389 650.44979 187.96076 652.808 189.0692 655.16268 190.17676 657.69247 190.73097 660.39736 190.73188 663.09957 190.73188 665.62979 190.17853 667.988 189.07187 670.3435 187.96521 672.41067 186.46921 674.1893 184.58388 675.9653 182.69678 677.3564 180.50345 678.3626 178.00389 679.36618 175.50257 679.86837 172.81725 679.86929 169.94792L689.9519 169.94925C689.9519 174.2959 689.1786 178.37546 687.6319 182.18788 686.08529 186.00032 683.9795 189.3412 681.3146 192.21053 678.64797 195.07985 675.5186 197.33452 671.92666 198.97452 668.3328 200.61273 664.4893 201.43184 660.396 201.43184H660.27999C656.1849 201.43006 652.3413 200.58873 648.7493 198.90784 645.15829 197.22608 642.0298 194.97052 639.364 192.14119 636.69827 189.31186 634.5934 185.99054 633.0494 182.17722 631.5045 178.36389 630.7325 174.28435 630.7334 169.93859L640.81607 169.93991ZM640.80538 232.79309C640.80538 229.922 641.30807 227.23667 642.31338 224.73712 643.31607 222.23578 644.70718 220.04245 646.4867 218.15714 648.2627 216.27002 650.32937 214.79447 652.68667 213.73047 655.04226 212.6647 657.57247 212.13227 660.2773 212.13315 662.9804 212.13315 665.5106 212.66648 667.868 213.73314 670.2235 214.79892 672.28976 216.27536 674.0666 218.16246 675.8435 220.04868 677.2533 222.24246 678.29598 224.74378 679.3386 227.24512 679.8595 229.93088 679.8586 232.80109L689.9412 232.80243C689.9412 228.45577 689.16928 224.37622 687.62527 220.56378 686.07949 216.75046 683.9746 213.42914 681.3106 210.59983 678.6466 207.7705 675.5182 205.53539 671.9253 203.8945 668.3333 202.25183 664.4902 201.43096 660.396 201.43184H660.27999C656.1849 201.43096 652.3409 202.25006 648.748 203.88916 645.156 205.52828 642.0267 207.76206 639.36007 210.59049 636.6943 213.41982 634.5885 216.74069 633.0427 220.55313 631.49606 224.36556 630.7227 228.4451 630.7227 232.79177L640.80538 232.79309Z"/>
</clipPath>
<clipPath id="clip_2">
<path transform="matrix(1,0,0,-1,0,381.9597)" d="M427.76994 137.98799C427.76994 143.06798 430.7419 145.52265 434.68193 145.52265 437.44725 145.52265 439.72724 144.2093 440.8339 141.68532 441.90458 144.2093 444.18589 145.52265 446.98588 145.52265 450.92588 145.52265 453.89787 143.06798 453.89787 137.98799V128.00002H451.58189V137.98799C451.58189 141.61598 449.57789 143.37865 446.81257 143.37865 444.04856 143.37865 442.00856 141.54799 442.00856 137.98799V128.00002H439.69258V137.98799C439.69258 141.54799 437.61924 143.37865 434.85527 143.37865 432.0899 143.37865 430.08595 141.61598 430.08595 137.98799V128.00002H427.76994V137.98799Z"/>
</clipPath>
<clipPath id="clip_3">
<path transform="matrix(1,0,0,-1,0,381.9597)" d="M479.4018 138.29866C478.84846 141.75464 476.15379 143.82798 472.69779 143.82798 469.13783 143.82798 466.47648 141.65198 465.95783 138.29866H479.4018ZM463.5045 136.98532C463.5045 142.17064 467.30583 145.97197 472.69779 145.97197 478.08845 145.97197 481.82179 142.17064 481.82179 136.98532V136.22533H465.8885C466.20048 132.66667 468.86048 130.14267 472.69779 130.14267 475.39247 130.14267 477.46714 131.248 478.57246 133.21868H481.09513C479.78178 130.07335 476.6711 128.00002 472.69779 128.00002 467.30583 128.00002 463.5045 131.80135 463.5045 136.98532Z"/>
</clipPath>
<clipPath id="clip_4">
<path transform="matrix(1,0,0,-1,0,381.9597)" d="M506.77369 136.98532C506.77369 140.92533 504.04304 143.82932 499.93104 143.82932 495.8524 143.82932 493.08708 140.92533 493.08708 136.98532 493.08708 133.04666 495.8524 130.14267 499.93104 130.14267 504.04304 130.14267 506.77369 133.04666 506.77369 136.98532ZM490.73774 137.05466C490.73774 142.30799 494.57374 145.97197 499.58439 145.97197 502.8337 145.97197 505.49504 144.45064 506.77369 141.85865V152.98662H509.0897V137.09066C509.0897 131.59467 505.2537 128.00002 499.9657 128.00002 494.53907 128.00002 490.73774 131.80135 490.73774 137.05466Z"/>
</clipPath>
<clipPath id="clip_5">
<path transform="matrix(1,0,0,-1,0,381.9597)" d="M520.043 145.07198H522.359V128.00002H520.043V145.07198ZM519.4217 150.15196C519.4217 151.15462 520.1817 151.91596 521.18307 151.91596 522.1857 151.91596 522.947 151.15462 522.947 150.15196 522.947 149.14929 522.1857 148.38932 521.18307 148.38932 520.1817 148.38932 519.4217 149.14929 519.4217 150.15196Z"/>
</clipPath>
<clipPath id="clip_6">
<path transform="matrix(1,0,0,-1,0,381.9597)" d="M548.62429 136.98532C548.62429 140.92531 545.85897 143.82932 541.7816 143.82932 537.70297 143.82932 534.9376 140.92531 534.9376 136.98532 534.9376 133.04666 537.70297 130.14267 541.7816 130.14267 545.85897 130.14267 548.62429 133.04666 548.62429 136.98532ZM532.5883 136.88134C532.5883 142.20398 536.38967 145.97197 541.7816 145.97197 547.1723 145.97197 550.94027 142.27465 550.94027 136.88134V128.44934H548.7976V132.66667C547.587 129.62401 544.7536 128.00002 541.43496 128.00002 536.6323 128.00002 532.5883 131.42134 532.5883 136.88134Z"/>
</clipPath>
<clipPath id="clip_7">
<path transform="matrix(1,0,0,-1,0,381.9597)" d="M496.50978 193.81317V243.4837H507.87107V230.52507H521.92709V220.12244H507.87107V193.81317C507.87107 184.48519 512.77377 180.41986 520.187 180.41986 527.6017 180.41986 532.6243 182.71453 532.6243 192.1625V193.47716H543.86569V192.1625C543.86569 176.13854 534.299 169.89589 520.187 169.89589 506.07643 169.89589 496.50978 177.7892 496.50978 193.81317Z"/>
</clipPath>
<clipPath id="clip_8">
<path transform="matrix(1,0,0,-1,0,381.9597)" d="M288.76893 232.80242H301.8689L320.02085 186.21854C320.78218 184.2652 323.51686 184.2652 324.27818 186.21854L342.4301 232.80242H355.15278L331.8088 176.24922C330.23149 172.42656 326.53416 169.93724 322.43418 169.93724H321.48753C317.3875 169.93724 313.6902 172.42656 312.11155 176.24922L288.76893 232.80242Z"/>
</clipPath>
<clipPath id="clip_9">
<path transform="matrix(1,0,0,-1,0,381.9597)" d="M607.2241 207.41448C604.92678 216.96512 597.06948 222.16378 587.39749 222.16378 577.4842 222.16378 569.9895 216.84378 567.6922 207.41448H607.2241ZM555.24026 201.3705C555.24026 219.50379 568.5389 232.80242 587.39749 232.80242 606.25747 232.80242 619.3134 219.50379 619.3134 201.3705V197.1385H567.3295C569.02157 186.49987 577.0015 180.57588 587.39749 180.57588 595.1348 180.57588 600.57479 182.99454 604.0814 188.19319H616.7748C612.1814 177.07056 601.3001 169.93724 587.39749 169.93724 568.5389 169.93724 555.24026 183.23587 555.24026 201.3705Z"/>
</clipPath>
<clipPath id="clip_10">
<path transform="matrix(1,0,0,-1,0,381.9597)" d="M410.84999 207.41448C408.55265 216.96512 400.6953 222.16378 391.02336 222.16378 381.11006 222.16378 373.6154 216.84378 371.31806 207.41448H410.84999ZM358.8661 201.3705C358.8661 219.50379 372.16474 232.80242 391.02336 232.80242 409.8833 232.80242 422.93928 219.50379 422.93928 201.3705V197.1385H370.95539C372.6474 186.49987 380.62739 180.57588 391.02336 180.57588 398.76066 180.57588 404.20066 182.99454 407.7073 188.19319H420.4006C415.80729 177.07056 404.92597 169.93724 391.02336 169.93724 372.16474 169.93724 358.8661 183.23587 358.8661 201.3705Z"/>
</clipPath>
<clipPath id="clip_11">
<path transform="matrix(1,0,0,-1,0,381.9597)" d="M434.31257 206.97182C434.31257 224.43177 444.59654 232.80242 459.7845 232.80242 474.85246 232.80242 485.13645 224.43177 485.13645 206.8518V206.25449H473.89515V206.97182C473.89515 217.85446 468.15516 222.27845 459.7845 222.27845 451.29386 222.27845 445.67256 217.85446 445.67256 206.97182V169.93724H434.31257V206.97182Z"/>
</clipPath>
<clipPath id="clip_12">
<path transform="matrix(1,0,0,-1,0,381.9597)" d="M640.81607 169.93991C640.81607 172.80925 641.3369 175.49501 642.37869 177.99723 643.4205 180.49678 644.83029 182.69055 646.60806 184.57855 648.3831 186.46389 650.44979 187.96076 652.808 189.0692 655.16268 190.17676 657.69247 190.73097 660.39736 190.73188 663.09957 190.73188 665.62979 190.17853 667.988 189.07187 670.3435 187.96521 672.41067 186.46921 674.1893 184.58388 675.9653 182.69678 677.3564 180.50345 678.3626 178.00389 679.36618 175.50257 679.86837 172.81725 679.86929 169.94792L689.9519 169.94925C689.9519 174.2959 689.1786 178.37546 687.6319 182.18788 686.08529 186.00032 683.9795 189.3412 681.3146 192.21053 678.64797 195.07985 675.5186 197.33452 671.92666 198.97452 668.3328 200.61273 664.4893 201.43184 660.396 201.43184H660.27999C656.1849 201.43006 652.3413 200.58873 648.7493 198.90784 645.15829 197.22608 642.0298 194.97052 639.364 192.14119 636.69827 189.31186 634.5934 185.99054 633.0494 182.17722 631.5045 178.36389 630.7325 174.28435 630.7334 169.93859L640.81607 169.93991ZM640.80538 232.79309C640.80538 229.922 641.30807 227.23667 642.31338 224.73712 643.31607 222.23578 644.70718 220.04245 646.4867 218.15714 648.2627 216.27002 650.32937 214.79447 652.68667 213.73047 655.04226 212.6647 657.57247 212.13227 660.2773 212.13315 662.9804 212.13315 665.5106 212.66648 667.868 213.73314 670.2235 214.79892 672.28976 216.27536 674.0666 218.16246 675.8435 220.04868 677.2533 222.24246 678.29598 224.74378 679.3386 227.24512 679.8595 229.93088 679.8586 232.80109L689.9412 232.80243C689.9412 228.45577 689.16928 224.37622 687.62527 220.56378 686.07949 216.75046 683.9746 213.42914 681.3106 210.59983 678.6466 207.7705 675.5182 205.53539 671.9253 203.8945 668.3333 202.25183 664.4902 201.43096 660.396 201.43184H660.27999C656.1849 201.43096 652.3409 202.25006 648.748 203.88916 645.156 205.52828 642.0267 207.76206 639.36007 210.59049 636.6943 213.41982 634.5885 216.74069 633.0427 220.55313 631.49606 224.36556 630.7227 228.4451 630.7227 232.79177L640.80538 232.79309Z"/>
</clipPath>
<clipPath id="clip_13">
<path transform="matrix(1,0,0,-1,0,381.9597)" d="M496.50978 193.81317V243.4837H507.87107V230.52507H521.92709V220.12244H507.87107V193.81317C507.87107 184.48519 512.77377 180.41986 520.187 180.41986 527.6017 180.41986 532.6243 182.71453 532.6243 192.1625V193.47716H543.86569V192.1625C543.86569 176.13854 534.299 169.89589 520.187 169.89589 506.07643 169.89589 496.50978 177.7892 496.50978 193.81317Z"/>
</clipPath>
<clipPath id="clip_14">
<path transform="matrix(1,0,0,-1,0,381.9597)" d="M288.76893 232.80242H301.8689L320.02085 186.21854C320.78218 184.2652 323.51686 184.2652 324.27818 186.21854L342.4301 232.80242H355.15278L331.8088 176.24922C330.23149 172.42656 326.53416 169.93724 322.43418 169.93724H321.48753C317.3875 169.93724 313.6902 172.42656 312.11155 176.24922L288.76893 232.80242Z"/>
</clipPath>
<clipPath id="clip_15">
<path transform="matrix(1,0,0,-1,0,381.9597)" d="M607.2241 207.41448C604.92678 216.96512 597.06948 222.16378 587.39749 222.16378 577.4842 222.16378 569.9895 216.84378 567.6922 207.41448H607.2241ZM555.24026 201.3705C555.24026 219.50379 568.5389 232.80242 587.39749 232.80242 606.25747 232.80242 619.3134 219.50379 619.3134 201.3705V197.1385H567.3295C569.02157 186.49987 577.0015 180.57588 587.39749 180.57588 595.1348 180.57588 600.57479 182.99454 604.0814 188.19319H616.7748C612.1814 177.07056 601.3001 169.93724 587.39749 169.93724 568.5389 169.93724 555.24026 183.23587 555.24026 201.3705Z"/>
</clipPath>
<clipPath id="clip_16">
<path transform="matrix(1,0,0,-1,0,381.9597)" d="M410.84999 207.41448C408.55265 216.96512 400.6953 222.16378 391.02336 222.16378 381.11006 222.16378 373.6154 216.84378 371.31806 207.41448H410.84999ZM358.8661 201.3705C358.8661 219.50379 372.16474 232.80242 391.02336 232.80242 409.8833 232.80242 422.93928 219.50379 422.93928 201.3705V197.1385H370.95539C372.6474 186.49987 380.62739 180.57588 391.02336 180.57588 398.76066 180.57588 404.20066 182.99454 407.7073 188.19319H420.4006C415.80729 177.07056 404.92597 169.93724 391.02336 169.93724 372.16474 169.93724 358.8661 183.23587 358.8661 201.3705Z"/>
</clipPath>
<clipPath id="clip_17">
<path transform="matrix(1,0,0,-1,0,381.9597)" d="M434.31257 206.97182C434.31257 224.43177 444.59654 232.80242 459.7845 232.80242 474.85246 232.80242 485.13645 224.43177 485.13645 206.8518V206.25449H473.89515V206.97182C473.89515 217.85446 468.15516 222.27845 459.7845 222.27845 451.29386 222.27845 445.67256 217.85446 445.67256 206.97182V169.93724H434.31257V206.97182Z"/>
</clipPath>
</defs>
<path transform="matrix(1,0,-0,1,630.7227,149.15726)" d="M10.093308 62.862508C10.093308 59.993185 10.614197 57.30741 11.655972 54.805196 12.697747 52.305646 14.10752 50.111875 15.885293 48.223878 17.6604 46.338548 19.727065 44.841665 22.08528 43.733224 24.439942 42.62567 26.969712 42.07145 29.674595 42.07056 32.37681 42.07056 34.907026 42.623895 37.26524 43.730554 39.62079 44.83722 41.6879 46.333215 43.46656 48.218545 45.242559 50.10565 46.633665 52.29898 47.63988 54.79853 48.643438 57.29986 49.145658 59.985185 49.146547 62.854509L59.229188 62.853178C59.229188 58.50652 58.455854 54.42697 56.90919 50.61454 55.36253 46.8021 53.256757 43.461229 50.591878 40.5919 47.925218 37.722574 44.79589 35.46791 41.2039 33.827917 37.61013 32.189699 33.766588 31.370589 29.673262 31.370589H29.557259C25.462159 31.372366 21.618615 32.2137 18.026623 33.89458 14.43552 35.576356 11.307083 37.831907 8.641312 40.661233 5.975541 43.49056 3.870658 46.811883 2.326661 50.625207 .781776 54.43853 .009778 58.518075 .010667 62.863843L10.093308 62.862508ZM10.082643 .009331C10.082643 2.880436 10.585307 5.565762 11.590638 8.065311 12.593302 10.566639 13.98441 12.759968 15.763961 14.645298 17.539958 16.532406 19.606617 18.007958 21.963946 19.071953 24.319495 20.13773 26.849713 20.67017 29.554594 20.669281 32.257699 20.669281 34.787916 20.135949 37.14524 19.069283 39.50079 18.00351 41.56701 16.52707 43.34389 14.639961 45.120779 12.753746 46.530553 10.559971 47.573217 8.058643 48.61588 5.557316 49.13677 2.871548 49.13588 .001331L59.21852 0C59.21852 4.346657 58.446519 8.426201 56.902524 12.238636 55.35675 16.05196 53.25187 19.373284 50.58788 22.20261 47.923887 25.031937 44.795446 27.267045 41.202566 28.907929 37.610574 30.55059 33.767477 31.371478 29.673262 31.370589H29.557259C25.462159 31.371478 21.618168 30.552369 18.02529 28.913262 14.433298 27.274155 11.303972 25.040379 8.637312 22.21194 5.971541 19.382615 3.865769 16.061738 2.319995 12.249302 .773332 8.436867 0 4.357323 0 .010666L10.082643 .009331Z" fill="#150089"/>
<g clip-path="url(#clip_1)">
<path transform="matrix(1,0,-0,1,630.7227,149.15726)" d="M29.673262 31.370589V32.037256H29.557259V31.370589 30.703923H29.673262V31.370589ZM10.093308 62.862508H11.426639V64.19566L10.093485 64.19584 10.093308 62.862508ZM11.655972 54.805196 10.425063 54.292718 10.425258 54.29225 11.655972 54.805196ZM15.885293 48.223878 16.85605 49.13788 16.85601 49.137926 15.885293 48.223878ZM22.08528 43.733224 22.652789 44.939748 22.65246 44.939905 22.08528 43.733224ZM29.674595 42.07056 29.674157 40.73723H29.674595V42.07056ZM37.26524 43.730554 37.831678 42.523527 37.8322 42.523775 37.26524 43.730554ZM43.46656 48.218545 44.436407 47.303575 44.43752 47.304758 43.46656 48.218545ZM47.63988 54.79853 48.876756 54.300615 48.87733 54.302057 47.63988 54.79853ZM49.146547 62.854509 49.14672 64.187839 47.81363 64.18802 47.813219 62.854925 49.146547 62.854509ZM59.229188 62.853178H60.56252V64.18633L59.229364 64.18651 59.229188 62.853178ZM50.591878 40.5919 51.568544 39.684217 51.568845 39.68454 50.591878 40.5919ZM41.2039 33.827917 41.756948 32.614694 41.757669 32.615026 41.2039 33.827917ZM29.673262 31.370589 29.672972 32.70392 29.673262 30.037259V31.370589ZM29.557259 31.370589 29.55697 30.037259 29.557839 32.70392 29.557259 31.370589ZM18.026623 33.89458 17.461142 32.687105 17.4615 32.686937 18.026623 33.89458ZM2.326661 50.625207 3.56253 51.125604 3.56243 51.125848 2.326661 50.625207ZM.010667 62.863843 .010843 64.197177-1.32239 64.19735-1.322663 62.864114 .010667 62.863843ZM10.082643 .009331 10.082466-1.324001 11.415972-1.324177V.009331H10.082643ZM11.590638 8.065311 12.827662 7.567776 12.828239 7.569218 11.590638 8.065311ZM15.763961 14.645298 16.733576 13.730083 16.734919 13.73151 15.763961 14.645298ZM21.963946 19.071953 22.512469 17.856678 22.513573 17.857178 21.963946 19.071953ZM29.554594 20.669281 29.554156 19.335949H29.554594V20.669281ZM37.14524 19.069283 36.595579 17.854523 36.59561 17.854508 37.14524 19.069283ZM43.34389 14.639961 42.37316 13.725929 42.37338 13.725704 43.34389 14.639961ZM49.13588 .001331 47.80255 .001743 47.802137-1.331821 49.135705-1.331997 49.13588 .001331ZM59.21852 0 59.218347-1.333332 60.551855-1.333508V0H59.21852ZM56.902524 12.238636 58.13835 12.739136 58.13819 12.739529 56.902524 12.238636ZM41.202566 28.907929 40.64805 27.695374 40.64866 27.695096 41.202566 28.907929ZM18.02529 28.913262 17.47188 30.126317 17.471768 30.126267 18.02529 28.913262ZM8.637312 22.21194 7.667169 23.126595 7.666874 23.126282 8.637312 22.21194ZM2.319995 12.249302 3.555522 11.748062 3.555622 11.74831 2.319995 12.249302ZM0 .010666H-1.33333V-1.322491L-.000176-1.322666 0 .010666ZM10.093308 62.862508H8.759978C8.759978 59.82774 9.311767 56.96672 10.425063 54.292718L11.655972 54.805196 12.88688 55.317674C11.916627 57.6481 11.426639 60.158628 11.426639 62.862508H10.093308ZM11.655972 54.805196 10.425258 54.29225C11.526059 51.651079 13.021852 49.319906 14.914577 47.309835L15.885293 48.223878 16.85601 49.137926C15.193187 50.90384 13.869434 52.960214 12.886686 55.31814L11.655972 54.805196ZM15.885293 48.223878 14.914537 47.309877C16.80531 45.301698 19.00913 43.70584 21.5181 42.526544L22.08528 43.733224 22.65246 44.939905C20.444998 45.977487 18.515492 47.375398 16.85605 49.13788L15.885293 48.223878ZM22.08528 43.733224 21.51777 42.526697C24.05689 41.332384 26.781176 40.738183 29.674157 40.73723L29.674595 42.07056 29.675032 43.403894C27.158247 43.404718 24.82299 43.918958 22.652789 44.939748L22.08528 43.733224ZM29.674595 42.07056V40.73723C32.565095 40.73723 35.289537 41.33055 37.831678 42.523527L37.26524 43.730554 36.698808 44.937585C34.524515 43.917234 32.188524 43.403894 29.674595 43.403894V42.07056ZM37.26524 43.730554 37.8322 42.523775C40.338525 43.70127 42.54246 45.29605 44.436407 47.303575L43.46656 48.218545 42.49672 49.133516C40.83334 47.370386 38.903059 45.973169 36.69828 44.93734L37.26524 43.730554ZM43.46656 48.218545 44.43752 47.304758C46.331777 49.31752 47.811059 51.653326 48.87675 54.300615L47.63988 54.79853 46.40301 55.296445C45.456266 52.944635 44.15334 50.893785 42.495607 49.13233L43.46656 48.218545ZM47.63988 54.79853 48.87733 54.302057C49.948179 56.971105 50.47894 59.825925 50.479879 62.854097L49.146547 62.854509 47.813219 62.854925C47.812379 60.144445 47.33869 57.62861 46.40243 55.295007L47.63988 54.79853ZM49.146547 62.854509 49.14637 61.52118 59.22901 61.519845 59.229188 62.853178 59.229364 64.18651 49.14672 64.187839 49.146547 62.854509ZM59.229188 62.853178H57.89586C57.89586 58.6685 57.152135 54.760126 55.673666 51.115777L56.90919 50.61454 58.14472 50.113298C59.759576 54.093828 60.56252 58.34454 60.56252 62.853178H59.229188ZM56.90919 50.61454 55.673666 51.115777C54.18471 47.4456 52.164167 44.244096 49.614908 41.49926L50.591878 40.5919 51.568845 39.68454C54.349348 42.67836 56.540346 46.158609 58.14472 50.113298L56.90919 50.61454ZM50.591878 40.5919 49.615209 41.49958C47.06903 38.759897 44.083757 36.6085 40.650129 35.04081L41.2039 33.827917 41.757669 32.615026C45.508024 34.327325 48.7814 36.68525 51.568544 39.684217L50.591878 40.5919ZM41.2039 33.827917 40.650854 35.041139C37.23708 33.48497 33.58289 32.70392 29.673262 32.70392V31.370589 30.037259C33.95028 30.037259 37.983179 30.894423 41.756948 32.614694L41.2039 33.827917ZM29.557259 31.370589 29.557839 32.70392C25.651307 32.705614 22.001187 33.506769 18.591744 35.102228L18.026623 33.89458 17.4615 32.686937C21.23604 30.920628 25.27301 30.039116 29.55668 30.037259L29.557259 31.370589ZM18.026623 33.89458 18.592104 35.10206C15.150138 36.71399 12.159883 38.8711 9.611751 41.575574L8.641312 40.661233 7.670874 39.74689C10.454284 36.79271 13.720903 34.43872 17.461142 32.687105L18.026623 33.89458ZM8.641312 40.661233 9.611751 41.575574C7.065855 44.277669 5.048138 47.456483 3.56253 51.125604L2.326661 50.625207 1.090793 50.12481C2.693177 46.16728 4.885227 42.70345 7.670874 39.74689L8.641312 40.661233ZM2.326661 50.625207 3.56243 51.125848C2.085592 54.77121 1.343141 58.679708 1.343997 62.86357L.010667 62.863843-1.322663 62.864114C-1.323585 58.35644-.522039 54.105848 1.090893 50.124559L2.326661 50.625207ZM.010667 62.863843 .010491 61.530515 10.093132 61.52918 10.093308 62.862508 10.093485 64.19584 .010843 64.197177 .010667 62.863843ZM10.082643 .009331H11.415972C11.415972 2.721283 11.890037 5.236565 12.827661 7.567776L11.590638 8.065311 10.353615 8.562847C9.280577 5.894958 8.749312 3.039593 8.749312 .009331H10.082643ZM11.590638 8.065311 12.828239 7.569218C13.771155 9.92149 15.073374 11.971199 16.733576 13.730083L15.763961 14.645298 14.794346 15.560513C12.895447 13.54874 11.415448 11.211788 10.353036 8.561409L11.590638 8.065311ZM15.763961 14.645298 16.734919 13.73151C18.39145 15.491676 20.314661 16.864682 22.512469 17.856678L21.963946 19.071953 21.415423 20.287228C18.898575 19.15123 16.688464 17.573132 14.793003 15.559086L15.763961 14.645298ZM21.963946 19.071953 22.513573 17.857178C24.688303 18.84114 27.03001 19.33678 29.554156 19.335949L29.554594 20.669281 29.555033 22.00261C26.669415 22.00356 23.950686 21.434315 21.414317 20.286728L21.963946 19.071953ZM29.554594 20.669281V19.335949C32.0768 19.335949 34.418687 18.839543 36.595579 17.854523L37.14524 19.069283 37.694906 20.284043C35.15714 21.43235 32.438596 22.00261 29.554594 22.00261V20.669281ZM37.14524 19.069283 36.59561 17.854508C38.792089 16.860707 40.715349 15.486584 42.37316 13.725929L43.34389 14.639961 44.31462 15.553993C42.418668 17.567555 40.20949 19.146309 37.69487 20.284058L37.14524 19.069283ZM43.34389 14.639961 42.37338 13.725704C44.03507 11.961765 45.35883 9.905506 46.34253 7.545639L47.573217 8.058643 48.803907 8.571651C47.702276 11.214439 46.206487 13.545723 44.314409 15.554222L43.34389 14.639961ZM47.573217 8.058643 46.34253 7.545639C47.313428 5.216473 47.803388 2.706295 47.80255 .001743L49.13588 .001331 50.46921 .000919C50.47015 3.036797 49.91833 5.898163 48.803907 8.571651L47.573217 8.058643ZM49.13588 .001331 49.135705-1.331997 59.218347-1.333332 59.21852 0 59.218698 1.333328 49.136056 1.334663 49.13588 .001331ZM59.21852 0H60.551855C60.551855 4.508339 59.750349 8.758793 58.13835 12.739136L56.902524 12.238636 55.666696 11.73814C57.142694 8.093609 57.885194 4.184971 57.885194 0H59.21852ZM56.902524 12.238636 58.13819 12.739529C56.53412 16.69667 54.342264 20.160225 51.55862 23.116627L50.58788 22.20261 49.617136 21.288594C52.16148 18.586338 54.17938 15.407249 55.666856 11.737743L56.902524 12.238636ZM50.58788 22.20261 51.55862 23.116627C48.774358 26.073689 45.50369 28.409386 41.75647 30.120759L41.202566 28.907929 40.64866 27.695096C44.087205 26.124699 47.07341 23.990185 49.617136 21.288594L50.58788 22.20261ZM41.202566 28.907929 41.75708 30.12048C37.984556 31.845704 33.95146 32.70485 29.672972 32.70392L29.673262 31.370589 29.673552 30.037259C33.583486 30.038105 37.236597 29.255478 40.64805 27.695374L41.202566 28.907929ZM29.557259 31.370589 29.557549 32.70392C25.27864 32.70485 21.24505 31.847676 17.47188 30.126317L18.02529 28.913262 18.578698 27.700203C21.991288 29.257061 25.645676 30.038109 29.55697 30.037259L29.557259 31.370589ZM18.02529 28.913262 17.471768 30.126267C13.72544 28.416733 10.453993 26.082486 7.667169 23.126595L8.637312 22.21194 9.607455 21.297287C12.153952 23.998272 15.141156 26.131577 18.578812 27.700257L18.02529 28.913262ZM8.637312 22.21194 7.666874 23.126282C4.881388 20.169899 2.688525 16.706727 1.084367 12.750294L2.319995 12.249302 3.555622 11.74831C5.043012 15.416748 7.061694 18.595334 9.607751 21.297604L8.637312 22.21194ZM2.319995 12.249302 1.084467 12.750542C-.530388 8.770016-1.33333 4.519299-1.33333 .010666H0 1.33333C1.33333 4.195343 2.077052 8.103718 3.555522 11.748062L2.319995 12.249302ZM0 .010666-.000176-1.322666 10.082466-1.324001 10.082643 .009331 10.082818 1.342663 .000176 1.343994 0 .010666Z" fill="#150089"/>
</g>
<path transform="matrix(1,0,-0,1,427.76994,236.43704)" d="M0 7.534646C0 2.454659 2.971993-.000002 6.911983-.000002 9.677309-.000002 11.957304 1.313328 13.063968 3.837321 14.134632 1.313328 16.415959-.000002 19.215952-.000002 23.155943-.000002 26.127936 2.454659 26.127936 7.534646V17.522622H23.81194V7.534646C23.81194 3.906654 21.807946 2.143992 19.04262 2.143992 16.278626 2.143992 14.238631 3.974654 14.238631 7.534646V17.522622H11.922638V7.534646C11.922638 3.974654 9.849309 2.143992 7.085316 2.143992 4.31999 2.143992 2.315994 3.906654 2.315994 7.534646V17.522622H0V7.534646Z" fill="#150089"/>
<g clip-path="url(#clip_2)">
<path transform="matrix(1,0,-0,1,427.76994,236.43704)" d="M13.063968 3.837321 14.291429 4.358004 13.084211 7.20391 11.842857 4.372726 13.063968 3.837321ZM26.127936 17.522622H27.461266V18.855952H26.127936V17.522622ZM23.81194 17.522622V18.855952H22.478611V17.522622H23.81194ZM14.238631 17.522622H15.571961V18.855952H14.238631V17.522622ZM11.922638 17.522622V18.855952H10.589308V17.522622H11.922638ZM2.315994 17.522622H3.649324V18.855952H2.315994V17.522622ZM0 17.522622V18.855952H-1.33333V17.522622H0ZM0 7.534646H-1.33333C-1.33333 4.733267-.508478 2.480116 1.030705 .92453 2.567598-.628742 4.665559-1.333332 6.911983-1.333332V-.000002 1.333328C5.218417 1.333328 3.860386 1.856068 2.926286 2.800123 1.994475 3.741864 1.33333 5.256037 1.33333 7.534646H0ZM6.911983-.000002V-1.333332C10.140524-1.333332 12.940511 .235331 14.285078 3.301917L13.063968 3.837321 11.842857 4.372726C10.974097 2.391326 9.214095 1.333328 6.911983 1.333328V-.000002ZM13.063968 3.837321 11.836508 3.31664C13.145719 .230293 15.960781-1.333332 19.215952-1.333332V-.000002 1.333328C16.871138 1.333328 15.123546 2.396363 14.291429 4.358004L13.063968 3.837321ZM19.215952-.000002V-1.333332C21.462376-1.333332 23.560338-.628742 25.09723 .92453 26.636414 2.480116 27.461266 4.733267 27.461266 7.534646H26.127936 24.794608C24.794608 5.256038 24.133461 3.741864 23.20165 2.800123 22.26755 1.856068 20.909518 1.333328 19.215952 1.333328V-.000002ZM26.127936 7.534646H27.461266V17.522622H26.127936 24.794608V7.534646H26.127936ZM26.127936 17.522622V18.855952H23.81194V17.522622 16.189291H26.127936V17.522622ZM23.81194 17.522622H22.478611V7.534646H23.81194 25.14527V17.522622H23.81194ZM23.81194 7.534646H22.478611C22.478611 5.961289 22.047327 4.97771 21.496106 4.395562 20.95078 3.819645 20.137915 3.477322 19.04262 3.477322V2.143992 .810661C20.712649 .810661 22.284443 1.34967 23.43245 2.562082 24.574555 3.768264 25.14527 5.48001 25.14527 7.534646H23.81194ZM19.04262 2.143992V3.477322C17.96109 3.477322 17.133788 3.828617 16.571879 4.421506 16.005528 5.019083 15.571961 6.007619 15.571961 7.534646H14.238631 12.905301C12.905301 5.501681 13.491734 3.794889 14.636376 2.587138 15.785463 1.374699 17.360156 .810661 19.04262 .810661V2.143992ZM14.238631 7.534646H15.571961V17.522622H14.238631 12.905301V7.534646H14.238631ZM14.238631 17.522622V18.855952H11.922638V17.522622 16.189291H14.238631V17.522622ZM11.922638 17.522622H10.589308V7.534646H11.922638 13.255968V17.522622H11.922638ZM11.922638 7.534646H10.589308C10.589308 6.013436 10.150799 5.025592 9.577174 4.42618 9.006084 3.829417 8.167792 3.477322 7.085316 3.477322V2.143992 .810661C8.766833 .810661 10.347201 1.373898 11.503774 2.582464 12.657812 3.788382 13.255968 5.495863 13.255968 7.534646H11.922638ZM7.085316 2.143992V3.477322C5.99002 3.477322 5.177153 3.819645 4.631829 4.395562 4.080607 4.97771 3.649324 5.96129 3.649324 7.534646H2.315994 .982664C.982664 5.48001 1.553379 3.768264 2.695486 2.562082 3.843492 1.34967 5.415286 .810661 7.085316 .810661V2.143992ZM2.315994 7.534646H3.649324V17.522622H2.315994 .982664V7.534646H2.315994ZM2.315994 17.522622V18.855952H0V17.522622 16.189291H2.315994V17.522622ZM0 17.522622H-1.33333V7.534646H0 1.33333V17.522622H0Z" fill="#150089"/>
</g>
<path transform="matrix(1,0,-0,1,463.5045,235.98772)" d="M15.897294 7.673314C15.343963 4.217323 12.649302 2.143994 9.193311 2.143994 5.63332 2.143994 2.971993 4.319989 2.453327 7.673314H15.897294ZM0 8.986644C0 3.801324 3.801324 0 9.193311 0 14.583965 0 18.31729 3.801324 18.31729 8.986644V9.746642H2.383994C2.695993 13.3053 5.355988 15.829293 9.193311 15.829293 11.887971 15.829293 13.962633 14.723963 15.067964 12.753302H17.590624C16.277295 15.898626 13.166635 17.971955 9.193311 17.971955 3.801324 17.971955 0 14.170631 0 8.986644Z" fill="#150089"/>
<g clip-path="url(#clip_3)">
<path transform="matrix(1,0,-0,1,463.5045,235.98772)" d="M15.897294 7.673314 17.213856 7.462522 17.461083 9.006644H15.897294V7.673314ZM2.453327 7.673314V9.006644H.897914L1.135666 7.469509 2.453327 7.673314ZM18.31729 9.746642H19.65062V11.079971H18.31729V9.746642ZM2.383994 9.746642 1.055759 9.863092 .928652 8.413312H2.383994V9.746642ZM15.067964 12.753302 13.905068 12.101041 14.287076 11.419971H15.067964V12.753302ZM17.590624 12.753302V11.419971H19.59225L18.821005 13.267046 17.590624 12.753302ZM15.897294 7.673314 14.580732 7.884107C14.140362 5.133647 12.05564 3.477324 9.193311 3.477324V2.143994 .810665C13.242965 .810665 16.547564 3.300999 17.213856 7.462522L15.897294 7.673314ZM9.193311 2.143994V3.477324C6.238614 3.477324 4.18132 5.22421 3.770989 7.877119L2.453327 7.673314 1.135666 7.469509C1.762666 3.415769 5.028026 .810665 9.193311 .810665V2.143994ZM2.453327 7.673314V6.339984H15.897294V7.673314 9.006644H2.453327V7.673314ZM0 8.986644H-1.33333C-1.33333 3.044875 3.08518-1.33333 9.193311-1.33333V0 1.33333C4.517469 1.33333 1.33333 4.557774 1.33333 8.986644H0ZM9.193311 0V-1.33333C15.313537-1.33333 19.65062 3.058159 19.65062 8.986644H18.31729 16.98396C16.98396 4.54449 13.854393 1.33333 9.193311 1.33333V0ZM18.31729 8.986644H19.65062V9.746642H18.31729 16.98396V8.986644H18.31729ZM18.31729 9.746642V11.079971H2.383994V9.746642 8.413312H18.31729V9.746642ZM2.383994 9.746642 3.712229 9.630191C3.963024 12.490746 6.037655 14.495963 9.193311 14.495963V15.829293 17.162623C4.67432 17.162623 1.428963 14.119852 1.055759 9.863092L2.383994 9.746642ZM9.193311 15.829293V14.495963C11.503229 14.495963 13.079806 13.572376 13.905068 12.101041L15.067964 12.753302 16.23086 13.405561C14.845459 15.875549 12.272713 17.162623 9.193311 17.162623V15.829293ZM15.067964 12.753302V11.419971H17.590624V12.753302 14.086631H15.067964V12.753302ZM17.590624 12.753302 18.821005 13.267046C17.281947 16.952975 13.654929 19.305285 9.193311 19.305285V17.971955 16.638625C12.67834 16.638625 15.272642 14.844278 16.360245 12.239555L17.590624 12.753302ZM9.193311 17.971955V19.305285C3.085312 19.305285-1.33333 14.92721-1.33333 8.986644H0 1.33333C1.33333 13.414051 4.517337 16.638625 9.193311 16.638625V17.971955Z" fill="#150089"/>
</g>
<path transform="matrix(1,0,-0,1,490.73774,228.97307)" d="M16.03596 16.001294C16.03596 12.061302 13.3053 9.157309 9.193311 9.157309 5.114654 9.157309 2.349327 12.061302 2.349327 16.001294 2.349327 19.939949 5.114654 22.84394 9.193311 22.84394 13.3053 22.84394 16.03596 19.939949 16.03596 16.001294ZM0 15.931958C0 10.678638 3.835991 7.014647 8.846644 7.014647 12.095969 7.014647 14.757297 8.535976 16.03596 11.127971V-.000002H18.351954V15.895959C18.351954 21.391945 14.515964 24.986603 9.227977 24.986603 3.801324 24.986603 0 21.18528 0 15.931958Z" fill="#150089"/>
<g clip-path="url(#clip_4)">
<path transform="matrix(1,0,-0,1,490.73774,228.97307)" d="M16.03596 11.127971H17.36929L14.840212 11.717848 16.03596 11.127971ZM16.03596-.000002H14.702629V-1.333332H16.03596V-.000002ZM18.351954-.000002V-1.333332H19.685284V-.000002H18.351954ZM16.03596 16.001294H14.702629C14.702629 14.344533 14.132898 12.980532 13.20534 12.03605 12.281356 11.095207 10.924132 10.490639 9.193311 10.490639V9.157309 7.823978C11.574478 7.823978 13.638578 8.671408 15.107922 10.167559 16.57369 11.66007 17.36929 13.71806 17.36929 16.001294H16.03596ZM9.193311 9.157309V10.490639C7.481365 10.490639 6.121937 11.093826 5.191359 12.037833 4.257941 12.98472 3.682657 14.349254 3.682657 16.001294H2.349327 1.015997C1.015997 13.71334 1.823377 11.655882 3.292287 10.165775 4.764036 8.672789 6.8266 7.823978 9.193311 7.823978V9.157309ZM2.349327 16.001294H3.682657C3.682657 17.652546 4.257863 19.016747 5.191295 19.96352 6.121893 20.907418 7.481359 21.510613 9.193311 21.510613V22.84394 24.17727C6.826606 24.17727 4.76408 23.328469 3.292351 21.835707 1.823456 20.34582 1.015997 18.288695 1.015997 16.001294H2.349327ZM9.193311 22.84394V21.510613C10.924138 21.510613 12.2814 20.906037 13.205404 19.965302 14.132976 19.020937 14.702629 17.657269 14.702629 16.001294H16.03596 17.36929C17.36929 18.283974 16.573615 20.341629 15.107858 21.833924 13.638535 23.329852 11.574471 24.17727 9.193311 24.17727V22.84394ZM0 15.931958H-1.33333C-1.33333 9.932197 3.109717 5.681316 8.846644 5.681316V7.014647 8.347977C4.562264 8.347977 1.33333 11.42508 1.33333 15.931958H0ZM8.846644 7.014647V5.681316C12.524558 5.681316 15.695519 7.424068 17.231707 10.538093L16.03596 11.127971 14.840212 11.717848C13.819073 9.647885 11.667381 8.347977 8.846644 8.347977V7.014647ZM16.03596 11.127971H14.702629V-.000002H16.03596 17.36929V11.127971H16.03596ZM16.03596-.000002V-1.333332H18.351954V-.000002 1.333328H16.03596V-.000002ZM18.351954-.000002H19.685284V15.895959H18.351954 17.018624V-.000002H18.351954ZM18.351954 15.895959H19.685284C19.685284 18.96532 18.60728 21.593762 16.705616 23.455126 14.80796 25.312565 12.17865 26.319933 9.227977 26.319933V24.986603 23.653273C11.56529 23.653273 13.49797 22.863312 14.840304 21.549427 16.17863 20.239464 17.018624 18.322585 17.018624 15.895959H18.351954ZM9.227977 24.986603V26.319933C3.081837 26.319933-1.33333 21.938435-1.33333 15.931958H0 1.33333C1.33333 20.432124 4.520811 23.653273 9.227977 23.653273V24.986603Z" fill="#150089"/>
</g>
<path transform="matrix(1,0,-0,1,519.4217,230.04373)" d="M.621336 6.843977H2.93733V23.915936H.621336V6.843977ZM0 1.763992C0 .761328 .760017 0 1.761348 0 2.764012 0 3.525341 .761328 3.525341 1.763992 3.525341 2.766657 2.764012 3.526642 1.761348 3.526642 .760017 3.526642 0 2.766657 0 1.763992Z" fill="#150089"/>
<g clip-path="url(#clip_5)">
<path transform="matrix(1,0,-0,1,519.4217,230.04373)" d="M.621336 6.843977H-.711994V5.510647H.621336V6.843977ZM2.93733 6.843977V5.510647H4.27066V6.843977H2.93733ZM2.93733 23.915936H4.27066V25.249266H2.93733V23.915936ZM.621336 23.915936V25.249266H-.711994V23.915936H.621336ZM.621336 6.843977V5.510647H2.93733V6.843977 8.177306H.621336V6.843977ZM2.93733 6.843977H4.27066V23.915936H2.93733 1.604V6.843977H2.93733ZM2.93733 23.915936V25.249266H.621336V23.915936 22.582606H2.93733V23.915936ZM.621336 23.915936H-.711994V6.843977H.621336 1.954666V23.915936H.621336ZM0 1.763992H-1.33333C-1.33333 .026922 .021669-1.33333 1.761348-1.33333V0 1.33333C1.607688 1.33333 1.508896 1.387794 1.448721 1.448065 1.388449 1.50843 1.33333 1.608343 1.33333 1.763992H0ZM1.761348 0V-1.33333C3.50039-1.33333 4.858671 .02495 4.858671 1.763992H3.525341 2.192011C2.192011 1.609068 2.137099 1.509367 2.076537 1.448803 2.015974 1.388241 1.916272 1.33333 1.761348 1.33333V0ZM3.525341 1.763992H4.858671C4.858671 3.504372 3.499052 4.859972 1.761348 4.859972V3.526642 2.193314C1.916986 2.193314 2.016763 2.13822 2.077039 2.078009 2.137213 2.017899 2.192011 1.918783 2.192011 1.763992H3.525341ZM1.761348 3.526642V4.859972C.023006 4.859972-1.33333 3.502401-1.33333 1.763992H0 1.33333C1.33333 1.91951 1.388336 2.018833 1.448219 2.078747 1.508107 2.138664 1.606973 2.193314 1.761348 2.193314V3.526642Z" fill="#150089"/>
</g>
<path transform="matrix(1,0,-0,1,532.5883,235.98772)" d="M16.03596 8.986644C16.03596 5.046655 13.270634 2.142662 9.193311 2.142662 5.114654 2.142662 2.349327 5.046655 2.349327 8.986644 2.349327 12.925301 5.114654 15.829293 9.193311 15.829293 13.270634 15.829293 16.03596 12.925301 16.03596 8.986644ZM0 9.090644C0 3.767991 3.801324 0 9.193311 0 14.583963 0 18.351954 3.697325 18.351954 9.090644V17.522624H16.209294V13.3053C14.998629 16.34796 12.165302 17.971955 8.846644 17.971955 4.04399 17.971955 0 14.55063 0 9.090644Z" fill="#150089"/>
<g clip-path="url(#clip_6)">
<path transform="matrix(1,0,-0,1,532.5883,235.98772)" d="M18.351954 17.522624H19.685284V18.855954H18.351954V17.522624ZM16.209294 17.522624V18.855954H14.875962V17.522624H16.209294ZM16.209294 13.3053 14.97043 12.812361 17.542622 13.3053H16.209294ZM16.03596 8.986644H14.702629C14.702629 7.3346 14.127339 5.970029 13.19403 5.02312 12.263566 4.079098 10.904471 3.475992 9.193311 3.475992V2.142662 .809332C11.559472 .809332 13.621702 1.658222 15.093232 3.151194 16.561917 4.641278 17.36929 6.698699 17.36929 8.986644H16.03596ZM9.193311 2.142662V3.475992C7.481365 3.475992 6.121937 4.079179 5.191359 5.023186 4.257941 5.970074 3.682657 7.334606 3.682657 8.986644H2.349327 1.015997C1.015997 6.698692 1.823377 4.641234 3.292287 3.151128 4.764036 1.65814 6.8266 .809332 9.193311 .809332V2.142662ZM2.349327 8.986644H3.682657C3.682657 10.637899 4.257863 12.002098 5.191295 12.948872 6.121893 13.892769 7.481359 14.495963 9.193311 14.495963V15.829293 17.162623C6.826606 17.162623 4.76408 16.313822 3.292351 14.821059 1.823456 13.331171 1.015997 11.274046 1.015997 8.986644H2.349327ZM9.193311 15.829293V14.495963C10.904478 14.495963 12.26361 13.892851 13.194094 12.948936 14.127418 12.002144 14.702629 10.637905 14.702629 8.986644H16.03596 17.36929C17.36929 11.27404 16.561839 13.331126 15.093168 14.820993 13.621658 16.31374 11.559466 17.162623 9.193311 17.162623V15.829293ZM0 9.090644H-1.33333C-1.33333 6.102443-.260604 3.479146 1.636826 1.601574 3.533376-.275127 6.179236-1.33333 9.193311-1.33333V0 1.33333C6.815399 1.33333 4.864603 2.159122 3.512494 3.497081 2.161266 4.834167 1.33333 6.756192 1.33333 9.090644H0ZM9.193311 0V-1.33333C12.200164-1.33333 14.839575-.297012 16.731837 1.574951 18.625523 3.448324 19.685284 6.074177 19.685284 9.090644H18.351954 17.018624C17.018624 6.713792 16.194388 4.794322 14.856418 3.470704 13.51702 2.145675 11.57711 1.33333 9.193311 1.33333V0ZM18.351954 9.090644H19.685284V17.522624H18.351954 17.018624V9.090644H18.351954ZM18.351954 17.522624V18.855954H16.209294V17.522624 16.189293H18.351954V17.522624ZM16.209294 17.522624H14.875962V13.3053H16.209294 17.542622V17.522624H16.209294ZM16.209294 13.3053 17.448155 13.798239C16.00236 17.431836 12.615558 19.305285 8.846644 19.305285V17.971955 16.638625C11.715048 16.638625 13.994899 15.264083 14.97043 12.812361L16.209294 13.3053ZM8.846644 17.971955V19.305285C3.36696 19.305285-1.33333 15.344986-1.33333 9.090644H0 1.33333C1.33333 13.756273 4.72102 16.638625 8.846644 16.638625V17.971955Z" fill="#150089"/>
</g>
<path transform="matrix(1,0,-0,1,496.50978,138.47599)" d="M0 49.67054V0H11.361305V12.95863H25.41727V23.361275H11.361305V49.67054C11.361305 58.998517 16.26396 63.063844 23.677275 63.063844 31.091923 63.063844 36.11458 60.76918 36.11458 51.321207V50.00654H47.35588V51.321207C47.35588 67.34516 37.789239 73.587818 23.677275 73.587818 9.566642 73.587818 0 65.6945 0 49.67054Z" fill="#150089"/>
<g clip-path="url(#clip_7)">
<path transform="matrix(1,0,-0,1,496.50978,138.47599)" d="M0 0H-1.33333V-1.333328H0V0ZM11.361305 0V-1.333328H12.694635V0H11.361305ZM11.361305 12.95863V14.291962H10.027975V12.95863H11.361305ZM25.41727 12.95863V11.625301H26.7506V12.95863H25.41727ZM25.41727 23.361275H26.7506V24.694603H25.41727V23.361275ZM11.361305 23.361275H10.027975V22.027943H11.361305V23.361275ZM36.11458 50.00654H34.781248V48.67321H36.11458V50.00654ZM47.35588 50.00654V48.67321H48.68921V50.00654H47.35588ZM0 49.67054H-1.33333V0H0 1.33333V49.67054H0ZM0 0V-1.333328H11.361305V0 1.333328H0V0ZM11.361305 0H12.694635V12.95863H11.361305 10.027975V0H11.361305ZM11.361305 12.95863V11.625301H25.41727V12.95863 14.291962H11.361305V12.95863ZM25.41727 12.95863H26.7506V23.361275H25.41727 24.08394V12.95863H25.41727ZM25.41727 23.361275V24.694603H11.361305V23.361275 22.027943H25.41727V23.361275ZM11.361305 23.361275H12.694635V49.67054H11.361305 10.027975V23.361275H11.361305ZM11.361305 49.67054H12.694635C12.694635 54.1112 13.859126 57.073945 15.688605 58.928926 17.516432 60.782228 20.2062 61.73051 23.677275 61.73051V63.063844 64.39717C19.735033 64.39717 16.266818 63.312795 13.789988 60.80144 11.314812 58.291765 10.027975 54.55786 10.027975 49.67054H11.361305ZM23.677275 63.063844V61.73051C27.303734 61.73051 30.02459 61.1567 31.84098 59.696374 33.591577 58.288949 34.781248 55.82029 34.781248 51.321207H36.11458 37.447908C37.447908 56.270097 36.126256 59.672758 33.511857 61.774656 30.963259 63.823656 27.465462 64.39717 23.677275 64.39717V63.063844ZM36.11458 51.321207H34.781248V50.00654H36.11458 37.447908V51.321207H36.11458ZM36.11458 50.00654V48.67321H47.35588V50.00654 51.33987H36.11458V50.00654ZM47.35588 50.00654H48.68921V51.321207H47.35588 46.02255V50.00654H47.35588ZM47.35588 51.321207H48.68921C48.68921 59.606199 46.205587 65.59176 41.676519 69.47563 37.185544 73.32684 30.901638 74.92114 23.677275 74.92114V73.587818 72.254489C30.564875 72.254489 36.120275 70.72746 39.94061 67.451358 43.722856 64.20792 46.02255 59.06017 46.02255 51.321207H47.35588ZM23.677275 73.587818V74.92114C16.381499 74.92114 10.094566 72.878047 5.62534 68.60151 1.145657 64.31497-1.33333 57.951677-1.33333 49.67054H0 1.33333C1.33333 57.41337 3.637664 63.00871 7.46896 66.67482 11.310712 70.35093 16.862418 72.254489 23.677275 72.254489V73.587818Z" fill="#150089"/>
</g>
<path transform="matrix(1,0,-0,1,288.76893,149.15727)" d="M0 0H13.099967L31.25192 46.583887C32.013254 48.537218 34.747915 48.537218 35.509248 46.583887L53.661199 0H66.383838L43.03989 56.553197C41.462564 60.375856 37.76524 62.865179 33.665254 62.865179H32.718587C28.618596 62.865179 24.921273 60.375856 23.34261 56.553197L0 0Z" fill="#150089"/>
<g clip-path="url(#clip_8)">
<path transform="matrix(1,0,-0,1,288.76893,149.15727)" d="M0 0-1.232471 .508709-1.992781-1.333332H0V0ZM13.099967 0V-1.333332H14.011398L14.342313-.484093 13.099967 0ZM31.25192 46.583887 30.009619 47.06809 30.009577 47.06798 31.25192 46.583887ZM35.509248 46.583887 36.75159 47.06798 36.75155 47.06809 35.509248 46.583887ZM53.661199 0 52.418855-.484093 52.749769-1.333332H53.661199V0ZM66.383838 0V-1.333332H68.376659L67.616298 .508736 66.383838 0ZM43.03989 56.553197 41.807367 56.044626 41.80743 56.044466 43.03989 56.553197ZM23.34261 56.553197 22.110234 57.062139 22.110138 57.061906 23.34261 56.553197ZM0 0V-1.333332H13.099967V0 1.333332H0V0ZM13.099967 0 14.342313-.484093 32.494268 46.099794 31.25192 46.583887 30.009577 47.06798 11.857622 .484097 13.099967 0ZM31.25192 46.583887 32.494226 46.099687C32.81428 46.92084 33.946889 46.92084 34.26694 46.099687L35.509248 46.583887 36.75155 47.06809C35.548944 50.153589 31.212225 50.153589 30.009619 47.06809L31.25192 46.583887ZM35.509248 46.583887 34.2669 46.099794 52.418855-.484093 53.661199 0 54.903547 .484097 36.75159 47.06798 35.509248 46.583887ZM53.661199 0V-1.333332H66.383838V0 1.333332H53.661199V0ZM66.383838 0 67.616298 .508736 44.272356 57.061929 43.03989 56.553197 41.80743 56.044466 65.151378-.508732 66.383838 0ZM43.03989 56.553197 44.27242 57.061769C42.49147 61.377897 38.311269 64.19851 33.665254 64.19851V62.865179 61.53185C37.219217 61.53185 40.433656 59.373815 41.807367 56.044626L43.03989 56.553197ZM33.665254 62.865179V64.19851H32.718587V62.865179 61.53185H33.665254V62.865179ZM32.718587 62.865179V64.19851C28.072497 64.19851 23.892523 61.377866 22.110234 57.062139L23.34261 56.553197 24.574984 56.044256C25.95002 59.37384 29.164694 61.53185 32.718587 61.53185V62.865179ZM23.34261 56.553197 22.110138 57.061906-1.232471 .508709 0 0 1.232471-.508705 24.575079 56.044488 23.34261 56.553197Z" fill="#150089"/>
</g>
<path transform="matrix(1,0,-0,1,555.24026,149.15727)" d="M51.98387 25.387936C49.686544 15.837296 41.82923 10.638641 32.157255 10.638641 22.243945 10.638641 14.749295 15.958626 12.451967 25.387936H51.98387ZM0 31.43192C0 13.298634 13.298634 0 32.157255 0 51.01721 0 64.07317 13.298634 64.07317 31.43192V35.66391H12.089303C13.781299 46.302549 21.76128 52.226533 32.157255 52.226533 39.89457 52.226533 45.334558 49.807874 48.841215 44.609224H61.534517C56.941194 55.731859 46.059888 62.865175 32.157255 62.865175 13.298634 62.865175 0 49.56654 0 31.43192Z" fill="#150089"/>
<g clip-path="url(#clip_9)">
<path transform="matrix(1,0,-0,1,555.24026,149.15727)" d="M51.98387 25.387936 53.280225 25.07611 53.675954 26.721268H51.98387V25.387936ZM12.451967 25.387936V26.721268H10.754787L11.156531 25.072319 12.451967 25.387936ZM64.07317 35.66391H65.4065V36.99724H64.07317V35.66391ZM12.089303 35.66391 10.772522 35.873334 10.527159 34.330579H12.089303V35.66391ZM48.841215 44.609224 47.735845 43.863618 48.132284 43.27589H48.841215V44.609224ZM61.534517 44.609224V43.27589H63.527696L62.76689 45.118158 61.534517 44.609224ZM51.98387 25.387936 50.687517 25.699765C48.556436 16.84026 41.312868 11.971973 32.157255 11.971973V10.638641 9.305313C42.345594 9.305313 50.816648 14.834328 53.280225 25.07611L51.98387 25.387936ZM32.157255 10.638641V11.971973C27.439637 11.971973 23.376606 13.23605 20.240244 15.55019 17.110892 17.859162 14.827912 21.268639 13.747404 25.703553L12.451967 25.387936 11.156531 25.072319C12.37335 20.077923 14.986362 16.112755 18.656992 13.404408 22.320614 10.701229 26.961562 9.305313 32.157255 9.305313V10.638641ZM12.451967 25.387936V24.054608H51.98387V25.387936 26.721268H12.451967V25.387936ZM0 31.43192H-1.33333C-1.33333 12.542114 12.582557-1.333328 32.157255-1.333328V0 1.333328C14.01471 1.333328 1.33333 14.055149 1.33333 31.43192H0ZM32.157255 0V-1.333328C51.74681-1.333328 65.4065 12.5555 65.4065 31.43192H64.07317 62.739847C62.739847 14.041763 50.2876 1.333328 32.157255 1.333328V0ZM64.07317 31.43192H65.4065V35.66391H64.07317 62.739847V31.43192H64.07317ZM64.07317 35.66391V36.99724H12.089303V35.66391 34.330579H64.07317V35.66391ZM12.089303 35.66391 13.406083 35.454484C14.204906 40.47719 16.469189 44.309595 19.693303 46.89443 22.92618 49.486295 27.212132 50.893205 32.157255 50.893205V52.226533 53.559865C26.706402 53.559865 21.804377 52.00478 18.02527 48.97499 14.2374 45.93818 11.665694 41.489267 10.772522 35.873334L12.089303 35.66391ZM32.157255 52.226533V50.893205C39.585199 50.893205 44.543558 48.59621 47.735845 43.863618L48.841215 44.609224 49.946584 45.354829C46.125555 51.01954 40.203939 53.559865 32.157255 53.559865V52.226533ZM48.841215 44.609224V43.27589H61.534517V44.609224 45.94255H48.841215V44.609224ZM61.534517 44.609224 62.76689 45.118158C57.94599 56.79187 46.540945 64.1985 32.157255 64.1985V62.865175 61.531847C45.578828 61.531847 55.936395 54.67185 60.30214 44.100286L61.534517 44.609224ZM32.157255 62.865175V64.1985C12.58252 64.1985-1.33333 50.323019-1.33333 31.43192H0 1.33333C1.33333 48.81006 14.014749 61.531847 32.157255 61.531847V62.865175Z" fill="#150089"/>
</g>
<path transform="matrix(1,0,-0,1,358.8661,149.15727)" d="M51.98387 25.387936C49.686544 15.837296 41.82923 10.638641 32.157255 10.638641 22.243945 10.638641 14.749295 15.958626 12.451967 25.387936H51.98387ZM0 31.43192C0 13.298634 13.298634 0 32.157255 0 51.01721 0 64.07317 13.298634 64.07317 31.43192V35.66391H12.089303C13.781299 46.302549 21.76128 52.226533 32.157255 52.226533 39.89457 52.226533 45.334558 49.807874 48.841215 44.609224H61.534517C56.941194 55.731859 46.059888 62.865175 32.157255 62.865175 13.298634 62.865175 0 49.56654 0 31.43192Z" fill="#150089"/>
<g clip-path="url(#clip_10)">
<path transform="matrix(1,0,-0,1,358.8661,149.15727)" d="M51.98387 25.387936 53.280225 25.07611 53.675954 26.721268H51.98387V25.387936ZM12.451967 25.387936V26.721268H10.754787L11.156531 25.072319 12.451967 25.387936ZM64.07317 35.66391H65.4065V36.99724H64.07317V35.66391ZM12.089303 35.66391 10.772522 35.873334 10.527159 34.330579H12.089303V35.66391ZM48.841215 44.609224 47.735845 43.863618 48.132284 43.27589H48.841215V44.609224ZM61.534517 44.609224V43.27589H63.527696L62.76689 45.118158 61.534517 44.609224ZM51.98387 25.387936 50.687517 25.699765C48.556436 16.84026 41.312868 11.971973 32.157255 11.971973V10.638641 9.305313C42.345594 9.305313 50.816648 14.834328 53.280225 25.07611L51.98387 25.387936ZM32.157255 10.638641V11.971973C27.439637 11.971973 23.376606 13.23605 20.240244 15.55019 17.110892 17.859162 14.827912 21.268639 13.747404 25.703553L12.451967 25.387936 11.156531 25.072319C12.37335 20.077923 14.986362 16.112755 18.656992 13.404408 22.320614 10.701229 26.961562 9.305313 32.157255 9.305313V10.638641ZM12.451967 25.387936V24.054608H51.98387V25.387936 26.721268H12.451967V25.387936ZM0 31.43192H-1.33333C-1.33333 12.542114 12.582557-1.333328 32.157255-1.333328V0 1.333328C14.01471 1.333328 1.33333 14.055149 1.33333 31.43192H0ZM32.157255 0V-1.333328C51.74681-1.333328 65.4065 12.5555 65.4065 31.43192H64.07317 62.739847C62.739847 14.041763 50.2876 1.333328 32.157255 1.333328V0ZM64.07317 31.43192H65.4065V35.66391H64.07317 62.739847V31.43192H64.07317ZM64.07317 35.66391V36.99724H12.089303V35.66391 34.330579H64.07317V35.66391ZM12.089303 35.66391 13.406083 35.454484C14.204906 40.47719 16.469189 44.309595 19.693303 46.89443 22.92618 49.486295 27.212132 50.893205 32.157255 50.893205V52.226533 53.559865C26.706402 53.559865 21.804377 52.00478 18.02527 48.97499 14.2374 45.93818 11.665694 41.489267 10.772522 35.873334L12.089303 35.66391ZM32.157255 52.226533V50.893205C39.585199 50.893205 44.543558 48.59621 47.735845 43.863618L48.841215 44.609224 49.946584 45.354829C46.125555 51.01954 40.203939 53.559865 32.157255 53.559865V52.226533ZM48.841215 44.609224V43.27589H61.534517V44.609224 45.94255H48.841215V44.609224ZM61.534517 44.609224 62.76689 45.118158C57.94599 56.79187 46.540945 64.1985 32.157255 64.1985V62.865175 61.531847C45.578828 61.531847 55.936395 54.67185 60.30214 44.100286L61.534517 44.609224ZM32.157255 62.865175V64.1985C12.58252 64.1985-1.33333 50.323019-1.33333 31.43192H0 1.33333C1.33333 48.81006 14.014749 61.531847 32.157255 61.531847V62.865175Z" fill="#150089"/>
</g>
<path transform="matrix(1,0,-0,1,434.31257,149.15727)" d="M0 25.830605C0 8.370647 10.283974 0 25.471936 0 40.539896 0 50.82387 8.370647 50.82387 25.950604V26.547936H39.582567V25.830605C39.582567 14.947964 33.84258 10.523979 25.471936 10.523979 16.98129 10.523979 11.359971 14.947964 11.359971 25.830605V62.865179H0V25.830605Z" fill="#150089"/>
<g clip-path="url(#clip_11)">
<path transform="matrix(1,0,-0,1,434.31257,149.15727)" d="M50.82387 26.547936H52.1572V27.881264H50.82387V26.547936ZM39.582567 26.547936V27.881264H38.249238V26.547936H39.582567ZM11.359971 62.865179H12.693301V64.19851H11.359971V62.865179ZM0 62.865179V64.19851H-1.33333V62.865179H0ZM0 25.830605H-1.33333C-1.33333 16.836247 1.322241 9.992355 6.118855 5.404297 10.90474 .826504 17.642369-1.333332 25.471936-1.333332V0 1.333332C18.11354 1.333332 12.115202 3.358822 7.962109 7.331341 3.819746 11.293594 1.33333 17.365006 1.33333 25.830605H0ZM25.471936 0V-1.333332C33.244127-1.333332 39.952859 .827999 44.723314 5.422462 49.50324 10.026051 52.1572 16.898823 52.1572 25.950604H50.82387 49.49054C49.49054 17.422429 47.002515 11.319901 42.873464 7.343174 38.73494 3.357327 32.767705 1.333332 25.471936 1.333332V0ZM50.82387 25.950604H52.1572V26.547936H50.82387 49.49054V25.950604H50.82387ZM50.82387 26.547936V27.881264H39.582567V26.547936 25.214604H50.82387V26.547936ZM39.582567 26.547936H38.249238V25.830605H39.582567 40.915899V26.547936H39.582567ZM39.582567 25.830605H38.249238C38.249238 20.613923 36.876375 17.179039 34.7263 15.041962 32.573637 12.902313 29.434485 11.857307 25.471936 11.857307V10.523979 9.190647C29.88003 9.190647 33.796194 10.357635 36.606187 13.150639 39.418767 15.946217 40.915899 20.164647 40.915899 25.830605H39.582567ZM25.471936 10.523979V11.857307C21.445164 11.857307 18.309752 12.904411 16.174704 15.039173 14.040458 17.17313 12.693301 20.60643 12.693301 25.830605H11.359971 10.026642C10.026642 20.172135 11.490144 15.952126 14.289218 13.153431 17.087492 10.355534 21.00806 9.190647 25.471936 9.190647V10.523979ZM11.359971 25.830605H12.693301V62.865179H11.359971 10.026642V25.830605H11.359971ZM11.359971 62.865179V64.19851H0V62.865179 61.53185H11.359971V62.865179ZM0 62.865179H-1.33333V25.830605H0 1.33333V62.865179H0Z" fill="#150089"/>
</g>
<path transform="matrix(1,0,-0,1,630.7227,149.15726)" d="M10.093308 62.862508C10.093308 59.993185 10.614197 57.30741 11.655972 54.805196 12.697747 52.305646 14.10752 50.111875 15.885293 48.223878 17.6604 46.338548 19.727065 44.841665 22.08528 43.733224 24.439942 42.62567 26.969712 42.07145 29.674595 42.07056 32.37681 42.07056 34.907026 42.623895 37.26524 43.730554 39.62079 44.83722 41.6879 46.333215 43.46656 48.218545 45.242559 50.10565 46.633665 52.29898 47.63988 54.79853 48.643438 57.29986 49.145658 59.985185 49.146547 62.854509L59.229188 62.853178C59.229188 58.50652 58.455854 54.42697 56.90919 50.61454 55.36253 46.8021 53.256757 43.461229 50.591878 40.5919 47.925218 37.722574 44.79589 35.46791 41.2039 33.827917 37.61013 32.189699 33.766588 31.370589 29.673262 31.370589H29.557259C25.462159 31.372366 21.618615 32.2137 18.026623 33.89458 14.43552 35.576356 11.307083 37.831907 8.641312 40.661233 5.975541 43.49056 3.870658 46.811883 2.326661 50.625207 .781776 54.43853 .009778 58.518075 .010667 62.863843L10.093308 62.862508ZM10.082643 .009331C10.082643 2.880436 10.585307 5.565762 11.590638 8.065311 12.593302 10.566639 13.98441 12.759968 15.763961 14.645298 17.539958 16.532406 19.606617 18.007958 21.963946 19.071953 24.319495 20.13773 26.849713 20.67017 29.554594 20.669281 32.257699 20.669281 34.787916 20.135949 37.14524 19.069283 39.50079 18.00351 41.56701 16.52707 43.34389 14.639961 45.120779 12.753746 46.530553 10.559971 47.573217 8.058643 48.61588 5.557316 49.13677 2.871548 49.13588 .001331L59.21852 0C59.21852 4.346657 58.446519 8.426201 56.902524 12.238636 55.35675 16.05196 53.25187 19.373284 50.58788 22.20261 47.923887 25.031937 44.795446 27.267045 41.202566 28.907929 37.610574 30.55059 33.767477 31.371478 29.673262 31.370589H29.557259C25.462159 31.371478 21.618168 30.552369 18.02529 28.913262 14.433298 27.274155 11.303972 25.040379 8.637312 22.21194 5.971541 19.382615 3.865769 16.061738 2.319995 12.249302 .773332 8.436867 0 4.357323 0 .010666L10.082643 .009331Z" fill="#150089"/>
<g clip-path="url(#clip_12)">
<path transform="matrix(1,0,-0,1,630.7227,149.15726)" d="M29.673262 31.370589V32.037256H29.557259V31.370589 30.703923H29.673262V31.370589ZM10.093308 62.862508H11.426639V64.19566L10.093485 64.19584 10.093308 62.862508ZM11.655972 54.805196 10.425063 54.292718 10.425258 54.29225 11.655972 54.805196ZM15.885293 48.223878 16.85605 49.13788 16.85601 49.137926 15.885293 48.223878ZM22.08528 43.733224 22.652789 44.939748 22.65246 44.939905 22.08528 43.733224ZM29.674595 42.07056 29.674157 40.73723H29.674595V42.07056ZM37.26524 43.730554 37.831678 42.523527 37.8322 42.523775 37.26524 43.730554ZM43.46656 48.218545 44.436407 47.303575 44.43752 47.304758 43.46656 48.218545ZM47.63988 54.79853 48.876756 54.300615 48.87733 54.302057 47.63988 54.79853ZM49.146547 62.854509 49.14672 64.187839 47.81363 64.18802 47.813219 62.854925 49.146547 62.854509ZM59.229188 62.853178H60.56252V64.18633L59.229364 64.18651 59.229188 62.853178ZM50.591878 40.5919 51.568544 39.684217 51.568845 39.68454 50.591878 40.5919ZM41.2039 33.827917 41.756948 32.614694 41.757669 32.615026 41.2039 33.827917ZM29.673262 31.370589 29.672972 32.70392 29.673262 30.037259V31.370589ZM29.557259 31.370589 29.55697 30.037259 29.557839 32.70392 29.557259 31.370589ZM18.026623 33.89458 17.461142 32.687105 17.4615 32.686937 18.026623 33.89458ZM2.326661 50.625207 3.56253 51.125604 3.56243 51.125848 2.326661 50.625207ZM.010667 62.863843 .010843 64.197177-1.32239 64.19735-1.322663 62.864114 .010667 62.863843ZM10.082643 .009331 10.082466-1.324001 11.415972-1.324177V.009331H10.082643ZM11.590638 8.065311 12.827662 7.567776 12.828239 7.569218 11.590638 8.065311ZM15.763961 14.645298 16.733576 13.730083 16.734919 13.73151 15.763961 14.645298ZM21.963946 19.071953 22.512469 17.856678 22.513573 17.857178 21.963946 19.071953ZM29.554594 20.669281 29.554156 19.335949H29.554594V20.669281ZM37.14524 19.069283 36.595579 17.854523 36.59561 17.854508 37.14524 19.069283ZM43.34389 14.639961 42.37316 13.725929 42.37338 13.725704 43.34389 14.639961ZM49.13588 .001331 47.80255 .001743 47.802137-1.331821 49.135705-1.331997 49.13588 .001331ZM59.21852 0 59.218347-1.333332 60.551855-1.333508V0H59.21852ZM56.902524 12.238636 58.13835 12.739136 58.13819 12.739529 56.902524 12.238636ZM41.202566 28.907929 40.64805 27.695374 40.64866 27.695096 41.202566 28.907929ZM18.02529 28.913262 17.47188 30.126317 17.471768 30.126267 18.02529 28.913262ZM8.637312 22.21194 7.667169 23.126595 7.666874 23.126282 8.637312 22.21194ZM2.319995 12.249302 3.555522 11.748062 3.555622 11.74831 2.319995 12.249302ZM0 .010666H-1.33333V-1.322491L-.000176-1.322666 0 .010666ZM10.093308 62.862508H8.759978C8.759978 59.82774 9.311767 56.96672 10.425063 54.292718L11.655972 54.805196 12.88688 55.317674C11.916627 57.6481 11.426639 60.158628 11.426639 62.862508H10.093308ZM11.655972 54.805196 10.425258 54.29225C11.526059 51.651079 13.021852 49.319906 14.914577 47.309835L15.885293 48.223878 16.85601 49.137926C15.193187 50.90384 13.869434 52.960214 12.886686 55.31814L11.655972 54.805196ZM15.885293 48.223878 14.914537 47.309877C16.80531 45.301698 19.00913 43.70584 21.5181 42.526544L22.08528 43.733224 22.65246 44.939905C20.444998 45.977487 18.515492 47.375398 16.85605 49.13788L15.885293 48.223878ZM22.08528 43.733224 21.51777 42.526697C24.05689 41.332384 26.781176 40.738183 29.674157 40.73723L29.674595 42.07056 29.675032 43.403894C27.158247 43.404718 24.82299 43.918958 22.652789 44.939748L22.08528 43.733224ZM29.674595 42.07056V40.73723C32.565095 40.73723 35.289537 41.33055 37.831678 42.523527L37.26524 43.730554 36.698808 44.937585C34.524515 43.917234 32.188524 43.403894 29.674595 43.403894V42.07056ZM37.26524 43.730554 37.8322 42.523775C40.338525 43.70127 42.54246 45.29605 44.436407 47.303575L43.46656 48.218545 42.49672 49.133516C40.83334 47.370386 38.903059 45.973169 36.69828 44.93734L37.26524 43.730554ZM43.46656 48.218545 44.43752 47.304758C46.331777 49.31752 47.811059 51.653326 48.87675 54.300615L47.63988 54.79853 46.40301 55.296445C45.456266 52.944635 44.15334 50.893785 42.495607 49.13233L43.46656 48.218545ZM47.63988 54.79853 48.87733 54.302057C49.948179 56.971105 50.47894 59.825925 50.479879 62.854097L49.146547 62.854509 47.813219 62.854925C47.812379 60.144445 47.33869 57.62861 46.40243 55.295007L47.63988 54.79853ZM49.146547 62.854509 49.14637 61.52118 59.22901 61.519845 59.229188 62.853178 59.229364 64.18651 49.14672 64.187839 49.146547 62.854509ZM59.229188 62.853178H57.89586C57.89586 58.6685 57.152135 54.760126 55.673666 51.115777L56.90919 50.61454 58.14472 50.113298C59.759576 54.093828 60.56252 58.34454 60.56252 62.853178H59.229188ZM56.90919 50.61454 55.673666 51.115777C54.18471 47.4456 52.164167 44.244096 49.614908 41.49926L50.591878 40.5919 51.568845 39.68454C54.349348 42.67836 56.540346 46.158609 58.14472 50.113298L56.90919 50.61454ZM50.591878 40.5919 49.615209 41.49958C47.06903 38.759897 44.083757 36.6085 40.650129 35.04081L41.2039 33.827917 41.757669 32.615026C45.508024 34.327325 48.7814 36.68525 51.568544 39.684217L50.591878 40.5919ZM41.2039 33.827917 40.650854 35.041139C37.23708 33.48497 33.58289 32.70392 29.673262 32.70392V31.370589 30.037259C33.95028 30.037259 37.983179 30.894423 41.756948 32.614694L41.2039 33.827917ZM29.557259 31.370589 29.557839 32.70392C25.651307 32.705614 22.001187 33.506769 18.591744 35.102228L18.026623 33.89458 17.4615 32.686937C21.23604 30.920628 25.27301 30.039116 29.55668 30.037259L29.557259 31.370589ZM18.026623 33.89458 18.592104 35.10206C15.150138 36.71399 12.159883 38.8711 9.611751 41.575574L8.641312 40.661233 7.670874 39.74689C10.454284 36.79271 13.720903 34.43872 17.461142 32.687105L18.026623 33.89458ZM8.641312 40.661233 9.611751 41.575574C7.065855 44.277669 5.048138 47.456483 3.56253 51.125604L2.326661 50.625207 1.090793 50.12481C2.693177 46.16728 4.885227 42.70345 7.670874 39.74689L8.641312 40.661233ZM2.326661 50.625207 3.56243 51.125848C2.085592 54.77121 1.343141 58.679708 1.343997 62.86357L.010667 62.863843-1.322663 62.864114C-1.323585 58.35644-.522039 54.105848 1.090893 50.124559L2.326661 50.625207ZM.010667 62.863843 .010491 61.530515 10.093132 61.52918 10.093308 62.862508 10.093485 64.19584 .010843 64.197177 .010667 62.863843ZM10.082643 .009331H11.415972C11.415972 2.721283 11.890037 5.236565 12.827661 7.567776L11.590638 8.065311 10.353615 8.562847C9.280577 5.894958 8.749312 3.039593 8.749312 .009331H10.082643ZM11.590638 8.065311 12.828239 7.569218C13.771155 9.92149 15.073374 11.971199 16.733576 13.730083L15.763961 14.645298 14.794346 15.560513C12.895447 13.54874 11.415448 11.211788 10.353036 8.561409L11.590638 8.065311ZM15.763961 14.645298 16.734919 13.73151C18.39145 15.491676 20.314661 16.864682 22.512469 17.856678L21.963946 19.071953 21.415423 20.287228C18.898575 19.15123 16.688464 17.573132 14.793003 15.559086L15.763961 14.645298ZM21.963946 19.071953 22.513573 17.857178C24.688303 18.84114 27.03001 19.33678 29.554156 19.335949L29.554594 20.669281 29.555033 22.00261C26.669415 22.00356 23.950686 21.434315 21.414317 20.286728L21.963946 19.071953ZM29.554594 20.669281V19.335949C32.0768 19.335949 34.418687 18.839543 36.595579 17.854523L37.14524 19.069283 37.694906 20.284043C35.15714 21.43235 32.438596 22.00261 29.554594 22.00261V20.669281ZM37.14524 19.069283 36.59561 17.854508C38.792089 16.860707 40.715349 15.486584 42.37316 13.725929L43.34389 14.639961 44.31462 15.553993C42.418668 17.567555 40.20949 19.146309 37.69487 20.284058L37.14524 19.069283ZM43.34389 14.639961 42.37338 13.725704C44.03507 11.961765 45.35883 9.905506 46.34253 7.545639L47.573217 8.058643 48.803907 8.571651C47.702276 11.214439 46.206487 13.545723 44.314409 15.554222L43.34389 14.639961ZM47.573217 8.058643 46.34253 7.545639C47.313428 5.216473 47.803388 2.706295 47.80255 .001743L49.13588 .001331 50.46921 .000919C50.47015 3.036797 49.91833 5.898163 48.803907 8.571651L47.573217 8.058643ZM49.13588 .001331 49.135705-1.331997 59.218347-1.333332 59.21852 0 59.218698 1.333328 49.136056 1.334663 49.13588 .001331ZM59.21852 0H60.551855C60.551855 4.508339 59.750349 8.758793 58.13835 12.739136L56.902524 12.238636 55.666696 11.73814C57.142694 8.093609 57.885194 4.184971 57.885194 0H59.21852ZM56.902524 12.238636 58.13819 12.739529C56.53412 16.69667 54.342264 20.160225 51.55862 23.116627L50.58788 22.20261 49.617136 21.288594C52.16148 18.586338 54.17938 15.407249 55.666856 11.737743L56.902524 12.238636ZM50.58788 22.20261 51.55862 23.116627C48.774358 26.073689 45.50369 28.409386 41.75647 30.120759L41.202566 28.907929 40.64866 27.695096C44.087205 26.124699 47.07341 23.990185 49.617136 21.288594L50.58788 22.20261ZM41.202566 28.907929 41.75708 30.12048C37.984556 31.845704 33.95146 32.70485 29.672972 32.70392L29.673262 31.370589 29.673552 30.037259C33.583486 30.038105 37.236597 29.255478 40.64805 27.695374L41.202566 28.907929ZM29.557259 31.370589 29.557549 32.70392C25.27864 32.70485 21.24505 31.847676 17.47188 30.126317L18.02529 28.913262 18.578698 27.700203C21.991288 29.257061 25.645676 30.038109 29.55697 30.037259L29.557259 31.370589ZM18.02529 28.913262 17.471768 30.126267C13.72544 28.416733 10.453993 26.082486 7.667169 23.126595L8.637312 22.21194 9.607455 21.297287C12.153952 23.998272 15.141156 26.131577 18.578812 27.700257L18.02529 28.913262ZM8.637312 22.21194 7.666874 23.126282C4.881388 20.169899 2.688525 16.706727 1.084367 12.750294L2.319995 12.249302 3.555622 11.74831C5.043012 15.416748 7.061694 18.595334 9.607751 21.297604L8.637312 22.21194ZM2.319995 12.249302 1.084467 12.750542C-.530388 8.770016-1.33333 4.519299-1.33333 .010666H0 1.33333C1.33333 4.195343 2.077052 8.103718 3.555522 11.748062L2.319995 12.249302ZM0 .010666-.000176-1.322666 10.082466-1.324001 10.082643 .009331 10.082818 1.342663 .000176 1.343994 0 .010666Z" fill="#150089"/>
</g>
<path transform="matrix(1,0,-0,1,496.50978,138.47599)" d="M0 49.67054V0H11.361305V12.95863H25.41727V23.361275H11.361305V49.67054C11.361305 58.998517 16.26396 63.063844 23.677275 63.063844 31.091923 63.063844 36.11458 60.76918 36.11458 51.321207V50.00654H47.35588V51.321207C47.35588 67.34516 37.789239 73.587818 23.677275 73.587818 9.566642 73.587818 0 65.6945 0 49.67054Z" fill="#150089"/>
<g clip-path="url(#clip_13)">
<path transform="matrix(1,0,-0,1,496.50978,138.47599)" d="M0 0H-1.33333V-1.333328H0V0ZM11.361305 0V-1.333328H12.694635V0H11.361305ZM11.361305 12.95863V14.291962H10.027975V12.95863H11.361305ZM25.41727 12.95863V11.625301H26.7506V12.95863H25.41727ZM25.41727 23.361275H26.7506V24.694603H25.41727V23.361275ZM11.361305 23.361275H10.027975V22.027943H11.361305V23.361275ZM36.11458 50.00654H34.781248V48.67321H36.11458V50.00654ZM47.35588 50.00654V48.67321H48.68921V50.00654H47.35588ZM0 49.67054H-1.33333V0H0 1.33333V49.67054H0ZM0 0V-1.333328H11.361305V0 1.333328H0V0ZM11.361305 0H12.694635V12.95863H11.361305 10.027975V0H11.361305ZM11.361305 12.95863V11.625301H25.41727V12.95863 14.291962H11.361305V12.95863ZM25.41727 12.95863H26.7506V23.361275H25.41727 24.08394V12.95863H25.41727ZM25.41727 23.361275V24.694603H11.361305V23.361275 22.027943H25.41727V23.361275ZM11.361305 23.361275H12.694635V49.67054H11.361305 10.027975V23.361275H11.361305ZM11.361305 49.67054H12.694635C12.694635 54.1112 13.859126 57.073945 15.688605 58.928926 17.516432 60.782228 20.2062 61.73051 23.677275 61.73051V63.063844 64.39717C19.735033 64.39717 16.266818 63.312795 13.789988 60.80144 11.314812 58.291765 10.027975 54.55786 10.027975 49.67054H11.361305ZM23.677275 63.063844V61.73051C27.303734 61.73051 30.02459 61.1567 31.84098 59.696374 33.591577 58.288949 34.781248 55.82029 34.781248 51.321207H36.11458 37.447908C37.447908 56.270097 36.126256 59.672758 33.511857 61.774656 30.963259 63.823656 27.465462 64.39717 23.677275 64.39717V63.063844ZM36.11458 51.321207H34.781248V50.00654H36.11458 37.447908V51.321207H36.11458ZM36.11458 50.00654V48.67321H47.35588V50.00654 51.33987H36.11458V50.00654ZM47.35588 50.00654H48.68921V51.321207H47.35588 46.02255V50.00654H47.35588ZM47.35588 51.321207H48.68921C48.68921 59.606199 46.205587 65.59176 41.676519 69.47563 37.185544 73.32684 30.901638 74.92114 23.677275 74.92114V73.587818 72.254489C30.564875 72.254489 36.120275 70.72746 39.94061 67.451358 43.722856 64.20792 46.02255 59.06017 46.02255 51.321207H47.35588ZM23.677275 73.587818V74.92114C16.381499 74.92114 10.094566 72.878047 5.62534 68.60151 1.145657 64.31497-1.33333 57.951677-1.33333 49.67054H0 1.33333C1.33333 57.41337 3.637664 63.00871 7.46896 66.67482 11.310712 70.35093 16.862418 72.254489 23.677275 72.254489V73.587818Z" fill="#150089"/>
</g>
<path transform="matrix(1,0,-0,1,288.76893,149.15727)" d="M0 0H13.099967L31.25192 46.583887C32.013254 48.537218 34.747915 48.537218 35.509248 46.583887L53.661199 0H66.383838L43.03989 56.553197C41.462564 60.375856 37.76524 62.865179 33.665254 62.865179H32.718587C28.618596 62.865179 24.921273 60.375856 23.34261 56.553197L0 0Z" fill="#150089"/>
<g clip-path="url(#clip_14)">
<path transform="matrix(1,0,-0,1,288.76893,149.15727)" d="M0 0-1.232471 .508709-1.992781-1.333332H0V0ZM13.099967 0V-1.333332H14.011398L14.342313-.484093 13.099967 0ZM31.25192 46.583887 30.009619 47.06809 30.009577 47.06798 31.25192 46.583887ZM35.509248 46.583887 36.75159 47.06798 36.75155 47.06809 35.509248 46.583887ZM53.661199 0 52.418855-.484093 52.749769-1.333332H53.661199V0ZM66.383838 0V-1.333332H68.376659L67.616298 .508736 66.383838 0ZM43.03989 56.553197 41.807367 56.044626 41.80743 56.044466 43.03989 56.553197ZM23.34261 56.553197 22.110234 57.062139 22.110138 57.061906 23.34261 56.553197ZM0 0V-1.333332H13.099967V0 1.333332H0V0ZM13.099967 0 14.342313-.484093 32.494268 46.099794 31.25192 46.583887 30.009577 47.06798 11.857622 .484097 13.099967 0ZM31.25192 46.583887 32.494226 46.099687C32.81428 46.92084 33.946889 46.92084 34.26694 46.099687L35.509248 46.583887 36.75155 47.06809C35.548944 50.153589 31.212225 50.153589 30.009619 47.06809L31.25192 46.583887ZM35.509248 46.583887 34.2669 46.099794 52.418855-.484093 53.661199 0 54.903547 .484097 36.75159 47.06798 35.509248 46.583887ZM53.661199 0V-1.333332H66.383838V0 1.333332H53.661199V0ZM66.383838 0 67.616298 .508736 44.272356 57.061929 43.03989 56.553197 41.80743 56.044466 65.151378-.508732 66.383838 0ZM43.03989 56.553197 44.27242 57.061769C42.49147 61.377897 38.311269 64.19851 33.665254 64.19851V62.865179 61.53185C37.219217 61.53185 40.433656 59.373815 41.807367 56.044626L43.03989 56.553197ZM33.665254 62.865179V64.19851H32.718587V62.865179 61.53185H33.665254V62.865179ZM32.718587 62.865179V64.19851C28.072497 64.19851 23.892523 61.377866 22.110234 57.062139L23.34261 56.553197 24.574984 56.044256C25.95002 59.37384 29.164694 61.53185 32.718587 61.53185V62.865179ZM23.34261 56.553197 22.110138 57.061906-1.232471 .508709 0 0 1.232471-.508705 24.575079 56.044488 23.34261 56.553197Z" fill="#150089"/>
</g>
<path transform="matrix(1,0,-0,1,555.24026,149.15727)" d="M51.98387 25.387936C49.686544 15.837296 41.82923 10.638641 32.157255 10.638641 22.243945 10.638641 14.749295 15.958626 12.451967 25.387936H51.98387ZM0 31.43192C0 13.298634 13.298634 0 32.157255 0 51.01721 0 64.07317 13.298634 64.07317 31.43192V35.66391H12.089303C13.781299 46.302549 21.76128 52.226533 32.157255 52.226533 39.89457 52.226533 45.334558 49.807874 48.841215 44.609224H61.534517C56.941194 55.731859 46.059888 62.865175 32.157255 62.865175 13.298634 62.865175 0 49.56654 0 31.43192Z" fill="#150089"/>
<g clip-path="url(#clip_15)">
<path transform="matrix(1,0,-0,1,555.24026,149.15727)" d="M51.98387 25.387936 53.280225 25.07611 53.675954 26.721268H51.98387V25.387936ZM12.451967 25.387936V26.721268H10.754787L11.156531 25.072319 12.451967 25.387936ZM64.07317 35.66391H65.4065V36.99724H64.07317V35.66391ZM12.089303 35.66391 10.772522 35.873334 10.527159 34.330579H12.089303V35.66391ZM48.841215 44.609224 47.735845 43.863618 48.132284 43.27589H48.841215V44.609224ZM61.534517 44.609224V43.27589H63.527696L62.76689 45.118158 61.534517 44.609224ZM51.98387 25.387936 50.687517 25.699765C48.556436 16.84026 41.312868 11.971973 32.157255 11.971973V10.638641 9.305313C42.345594 9.305313 50.816648 14.834328 53.280225 25.07611L51.98387 25.387936ZM32.157255 10.638641V11.971973C27.439637 11.971973 23.376606 13.23605 20.240244 15.55019 17.110892 17.859162 14.827912 21.268639 13.747404 25.703553L12.451967 25.387936 11.156531 25.072319C12.37335 20.077923 14.986362 16.112755 18.656992 13.404408 22.320614 10.701229 26.961562 9.305313 32.157255 9.305313V10.638641ZM12.451967 25.387936V24.054608H51.98387V25.387936 26.721268H12.451967V25.387936ZM0 31.43192H-1.33333C-1.33333 12.542114 12.582557-1.333328 32.157255-1.333328V0 1.333328C14.01471 1.333328 1.33333 14.055149 1.33333 31.43192H0ZM32.157255 0V-1.333328C51.74681-1.333328 65.4065 12.5555 65.4065 31.43192H64.07317 62.739847C62.739847 14.041763 50.2876 1.333328 32.157255 1.333328V0ZM64.07317 31.43192H65.4065V35.66391H64.07317 62.739847V31.43192H64.07317ZM64.07317 35.66391V36.99724H12.089303V35.66391 34.330579H64.07317V35.66391ZM12.089303 35.66391 13.406083 35.454484C14.204906 40.47719 16.469189 44.309595 19.693303 46.89443 22.92618 49.486295 27.212132 50.893205 32.157255 50.893205V52.226533 53.559865C26.706402 53.559865 21.804377 52.00478 18.02527 48.97499 14.2374 45.93818 11.665694 41.489267 10.772522 35.873334L12.089303 35.66391ZM32.157255 52.226533V50.893205C39.585199 50.893205 44.543558 48.59621 47.735845 43.863618L48.841215 44.609224 49.946584 45.354829C46.125555 51.01954 40.203939 53.559865 32.157255 53.559865V52.226533ZM48.841215 44.609224V43.27589H61.534517V44.609224 45.94255H48.841215V44.609224ZM61.534517 44.609224 62.76689 45.118158C57.94599 56.79187 46.540945 64.1985 32.157255 64.1985V62.865175 61.531847C45.578828 61.531847 55.936395 54.67185 60.30214 44.100286L61.534517 44.609224ZM32.157255 62.865175V64.1985C12.58252 64.1985-1.33333 50.323019-1.33333 31.43192H0 1.33333C1.33333 48.81006 14.014749 61.531847 32.157255 61.531847V62.865175Z" fill="#150089"/>
</g>
<path transform="matrix(1,0,-0,1,358.8661,149.15727)" d="M51.98387 25.387936C49.686544 15.837296 41.82923 10.638641 32.157255 10.638641 22.243945 10.638641 14.749295 15.958626 12.451967 25.387936H51.98387ZM0 31.43192C0 13.298634 13.298634 0 32.157255 0 51.01721 0 64.07317 13.298634 64.07317 31.43192V35.66391H12.089303C13.781299 46.302549 21.76128 52.226533 32.157255 52.226533 39.89457 52.226533 45.334558 49.807874 48.841215 44.609224H61.534517C56.941194 55.731859 46.059888 62.865175 32.157255 62.865175 13.298634 62.865175 0 49.56654 0 31.43192Z" fill="#150089"/>
<g clip-path="url(#clip_16)">
<path transform="matrix(1,0,-0,1,358.8661,149.15727)" d="M51.98387 25.387936 53.280225 25.07611 53.675954 26.721268H51.98387V25.387936ZM12.451967 25.387936V26.721268H10.754787L11.156531 25.072319 12.451967 25.387936ZM64.07317 35.66391H65.4065V36.99724H64.07317V35.66391ZM12.089303 35.66391 10.772522 35.873334 10.527159 34.330579H12.089303V35.66391ZM48.841215 44.609224 47.735845 43.863618 48.132284 43.27589H48.841215V44.609224ZM61.534517 44.609224V43.27589H63.527696L62.76689 45.118158 61.534517 44.609224ZM51.98387 25.387936 50.687517 25.699765C48.556436 16.84026 41.312868 11.971973 32.157255 11.971973V10.638641 9.305313C42.345594 9.305313 50.816648 14.834328 53.280225 25.07611L51.98387 25.387936ZM32.157255 10.638641V11.971973C27.439637 11.971973 23.376606 13.23605 20.240244 15.55019 17.110892 17.859162 14.827912 21.268639 13.747404 25.703553L12.451967 25.387936 11.156531 25.072319C12.37335 20.077923 14.986362 16.112755 18.656992 13.404408 22.320614 10.701229 26.961562 9.305313 32.157255 9.305313V10.638641ZM12.451967 25.387936V24.054608H51.98387V25.387936 26.721268H12.451967V25.387936ZM0 31.43192H-1.33333C-1.33333 12.542114 12.582557-1.333328 32.157255-1.333328V0 1.333328C14.01471 1.333328 1.33333 14.055149 1.33333 31.43192H0ZM32.157255 0V-1.333328C51.74681-1.333328 65.4065 12.5555 65.4065 31.43192H64.07317 62.739847C62.739847 14.041763 50.2876 1.333328 32.157255 1.333328V0ZM64.07317 31.43192H65.4065V35.66391H64.07317 62.739847V31.43192H64.07317ZM64.07317 35.66391V36.99724H12.089303V35.66391 34.330579H64.07317V35.66391ZM12.089303 35.66391 13.406083 35.454484C14.204906 40.47719 16.469189 44.309595 19.693303 46.89443 22.92618 49.486295 27.212132 50.893205 32.157255 50.893205V52.226533 53.559865C26.706402 53.559865 21.804377 52.00478 18.02527 48.97499 14.2374 45.93818 11.665694 41.489267 10.772522 35.873334L12.089303 35.66391ZM32.157255 52.226533V50.893205C39.585199 50.893205 44.543558 48.59621 47.735845 43.863618L48.841215 44.609224 49.946584 45.354829C46.125555 51.01954 40.203939 53.559865 32.157255 53.559865V52.226533ZM48.841215 44.609224V43.27589H61.534517V44.609224 45.94255H48.841215V44.609224ZM61.534517 44.609224 62.76689 45.118158C57.94599 56.79187 46.540945 64.1985 32.157255 64.1985V62.865175 61.531847C45.578828 61.531847 55.936395 54.67185 60.30214 44.100286L61.534517 44.609224ZM32.157255 62.865175V64.1985C12.58252 64.1985-1.33333 50.323019-1.33333 31.43192H0 1.33333C1.33333 48.81006 14.014749 61.531847 32.157255 61.531847V62.865175Z" fill="#150089"/>
</g>
<path transform="matrix(1,0,-0,1,434.31257,149.15727)" d="M0 25.830605C0 8.370647 10.283974 0 25.471936 0 40.539896 0 50.82387 8.370647 50.82387 25.950604V26.547936H39.582567V25.830605C39.582567 14.947964 33.84258 10.523979 25.471936 10.523979 16.98129 10.523979 11.359971 14.947964 11.359971 25.830605V62.865179H0V25.830605Z" fill="#150089"/>
<g clip-path="url(#clip_17)">
<path transform="matrix(1,0,-0,1,434.31257,149.15727)" d="M50.82387 26.547936H52.1572V27.881264H50.82387V26.547936ZM39.582567 26.547936V27.881264H38.249238V26.547936H39.582567ZM11.359971 62.865179H12.693301V64.19851H11.359971V62.865179ZM0 62.865179V64.19851H-1.33333V62.865179H0ZM0 25.830605H-1.33333C-1.33333 16.836247 1.322241 9.992355 6.118855 5.404297 10.90474 .826504 17.642369-1.333332 25.471936-1.333332V0 1.333332C18.11354 1.333332 12.115202 3.358822 7.962109 7.331341 3.819746 11.293594 1.33333 17.365006 1.33333 25.830605H0ZM25.471936 0V-1.333332C33.244127-1.333332 39.952859 .827999 44.723314 5.422462 49.50324 10.026051 52.1572 16.898823 52.1572 25.950604H50.82387 49.49054C49.49054 17.422429 47.002515 11.319901 42.873464 7.343174 38.73494 3.357327 32.767705 1.333332 25.471936 1.333332V0ZM50.82387 25.950604H52.1572V26.547936H50.82387 49.49054V25.950604H50.82387ZM50.82387 26.547936V27.881264H39.582567V26.547936 25.214604H50.82387V26.547936ZM39.582567 26.547936H38.249238V25.830605H39.582567 40.915899V26.547936H39.582567ZM39.582567 25.830605H38.249238C38.249238 20.613923 36.876375 17.179039 34.7263 15.041962 32.573637 12.902313 29.434485 11.857307 25.471936 11.857307V10.523979 9.190647C29.88003 9.190647 33.796194 10.357635 36.606187 13.150639 39.418767 15.946217 40.915899 20.164647 40.915899 25.830605H39.582567ZM25.471936 10.523979V11.857307C21.445164 11.857307 18.309752 12.904411 16.174704 15.039173 14.040458 17.17313 12.693301 20.60643 12.693301 25.830605H11.359971 10.026642C10.026642 20.172135 11.490144 15.952126 14.289218 13.153431 17.087492 10.355534 21.00806 9.190647 25.471936 9.190647V10.523979ZM11.359971 25.830605H12.693301V62.865179H11.359971 10.026642V25.830605H11.359971ZM11.359971 62.865179V64.19851H0V62.865179 61.53185H11.359971V62.865179ZM0 62.865179H-1.33333V25.830605H0 1.33333V62.865179H0Z" fill="#150089"/>
</g>
<path transform="matrix(1,0,-0,1,187.39852,208.65714)" d="M.030667 .066666 0-.000001Z" fill="#3df1f6"/>
<path transform="matrix(1,0,-0,1,187.39852,208.3412)" d="M.030667 .382603-.312742 .540571-.343409 .473904 0 .315936 .343409 .157968 .374075 .224635 .030667 .382603Z" fill="#fb5100"/>
<path transform="matrix(1,0,-0,1,172.59455,128)" d="M95.21843 0 55.4012 77.3118 46.06789 95.43175C44.553228 98.37308 42.154565 100.80374 39.151906 102.19574L39.09857 102.22107C38.199907 102.635738 37.278577 103.00907 36.333246 103.327739 33.506586 104.28107 30.482596 104.80239 27.334605 104.80239 20.917286 104.80239 15.001297 102.64907 10.275975 99.03041 9.487977 98.426418 8.727984 97.781078 8.007986 97.09441 4.117329 93.39709 1.27733 88.598438 0 83.19045 1.378663 83.18512 2.734661 83.07045 4.053325 82.85312 9.003979 82.055789 13.47597 79.82513 17.03996 76.60647 18.362626 75.41314 19.55729 74.08114 20.603953 72.637149L24.130606 65.7865 24.13461 65.77716 32.690587 49.16254 35.627916 43.463888C36.881246 40.59722 38.310575 37.821237 39.906568 35.16124 51.467874 15.858627 71.69716 2.346657 95.21843 0Z" fill="#3df1f6"/>
<path transform="matrix(1,0,-0,1,128,129.90665)" d="M24.673272 49.029214C32.70392 47.37855 39.314569 41.842565 42.45456 34.46125 43.70389 31.515923 44.405225 28.274598 44.418558 24.877272 44.469224 11.193306 32.89725 0 19.214619 0H0L24.673272 49.029214Z" fill="#3df1f6"/>
</svg>
